<?xml version="1.0" standalone="no"?>
<!DOCTYPE svg PUBLIC "-//W3C//DTD SVG 20010904//EN"
 "http://www.w3.org/TR/2001/REC-SVG-20010904/DTD/svg10.dtd">
<svg version="1.0" xmlns="http://www.w3.org/2000/svg"
 width="226.000000pt" height="226.000000pt" viewBox="0 0 226.000000 226.000000"
 preserveAspectRatio="xMidYMid meet">
<metadata>
Created by potrace 1.11, written by Peter Selinger 2001-2013
</metadata>
<g transform="translate(0.000000,226.000000) scale(0.100000,-0.100000)"
fill="#000000" stroke="none">
<path d="M1170 2244 c-208 -54 -367 -233 -367 -414 0 -154 110 -314 307 -447
41 -27 158 -92 260 -143 260 -130 248 -121 257 -183 9 -64 9 -62 0 -115 -6
-34 -15 -48 -48 -71 -71 -52 -99 -105 -94 -178 7 -90 70 -157 160 -170 25 -3
45 -8 44 -12 -1 -11 -64 -58 -121 -91 l-58 -32 0 74 c0 98 -29 196 -80 275
-48 74 -77 -30 -50 -177 13 -72 6 -158 -15 -186 -12 -17 -27 -19 -169 -17
-148 3 -156 2 -166 -18 -18 -32 9 -64 67 -79 26 -6 91 -14 143 -17 52 -3 97
-7 98 -9 2 -1 5 -25 7 -53 8 -111 95 -177 234 -175 93 1 156 27 215 92 66 72
80 82 187 136 132 66 163 101 164 186 0 72 -20 103 -94 143 -29 16 -56 39 -61
50 -15 42 -26 123 -19 155 16 81 -11 203 -61 277 -75 109 -152 164 -425 302
-115 58 -246 129 -290 158 -266 176 -322 361 -157 521 72 70 193 114 295 107
78 -5 143 -31 214 -85 57 -45 117 -73 133 -63 19 11 -25 101 -70 146 -108 108
-283 153 -440 113z m651 -1356 c14 -51 9 -65 -26 -68 -45 -5 -57 0 -50 18 9
24 15 49 22 105 l6 49 18 -29 c10 -15 23 -49 30 -75z m-16 -128 c3 -5 -1 -10
-10 -10 -9 0 -13 5 -10 10 3 6 8 10 10 10 2 0 7 -4 10 -10z m-95 -79 c0 -13
-37 -24 -52 -15 -8 5 -6 10 8 15 27 11 44 11 44 0z m193 -184 c12 -13 37 -33
55 -46 55 -38 44 -50 -99 -114 -72 -32 -101 -55 -182 -146 -66 -72 -197 -57
-197 24 0 35 20 55 56 55 30 0 158 68 210 112 29 24 69 64 90 90 22 26 40 47
42 47 2 1 13 -9 25 -22z"/>
<path d="M679 1270 c-79 -47 -133 -104 -165 -174 -27 -60 -34 -91 -35 -167 -1
-55 -2 -56 -40 -73 -37 -17 -99 -79 -99 -101 0 -6 -26 -10 -60 -10 -64 -1 -96
-17 -132 -66 -30 -39 -33 -114 -10 -182 12 -32 19 -65 17 -75 -2 -9 -8 -35
-13 -57 -12 -52 0 -85 30 -85 34 1 55 21 79 75 19 42 20 58 14 119 -4 39 -8
85 -9 101 l-1 30 67 1 c56 0 72 5 102 28 20 15 39 38 42 52 3 13 14 29 24 34
14 7 33 -12 112 -118 214 -287 237 -326 230 -385 -8 -63 -85 -76 -192 -34 -36
14 -92 29 -125 32 -108 11 -158 17 -179 21 -44 10 -166 16 -166 9 0 -23 56
-77 104 -100 58 -28 62 -29 146 -40 80 -10 126 -23 205 -58 52 -22 84 -30 124
-29 74 1 155 43 196 100 27 39 30 52 30 115 0 57 -6 84 -27 130 l-28 58 22 29
c16 23 20 38 16 74 -8 64 -34 97 -166 206 -136 112 -163 145 -170 205 -6 59 9
117 64 233 46 97 65 142 61 142 -1 0 -32 -18 -68 -40z"/>
</g>
</svg>
