<svg xmlns:rdf="http://www.w3.org/1999/02/22-rdf-syntax-ns#" xmlns="http://www.w3.org/2000/svg" height="512" width="30760" version="1.1" xmlns:cc="http://creativecommons.org/ns#" xmlns:dc="http://purl.org/dc/elements/1.1/" viewBox="0 0 30760.201 512">
<g transform="matrix(21.261 0 0 21.261 -31.892 -10.63)">
<path d="m12.4 23.3c6.1 0 10.9-4.8 10.9-10.9 0-6-4.8-10.9-10.9-10.9-6 0-10.9 4.9-10.9 10.9 0 6.1 4.9 10.9 10.9 10.9zm5.9-10.3v0.5c0 3.3-2.6 6-6 6-3.3 0-6-2.7-6-6 0-0.2 0.1-0.3 0.1-0.5h-0.5v0.5h12.9v-0.5h-0.5zm-5.9 9.3c-5.5 0-9.9-4.4-9.9-9.9s4.4-9.9 9.9-9.9 9.9 4.4 9.9 9.9-4.4 9.9-9.9 9.9zm6.9-9.3v-0.5h-0.5-12.9-0.5v0.5c0 0.1-0.1 0.3-0.1 0.5 0 3.9 3.2 7 7 7 3.9 0 7-3.1 7-7v-0.5zm-12-3h3c0.3 0 0.5-0.2 0.5-0.5s-0.2-0.5-0.5-0.5h-3c-0.2 0-0.5 0.2-0.5 0.5s0.3 0.5 0.5 0.5zm7 0h3.2c0.2 0 0.5-0.2 0.5-0.5s-0.3-0.5-0.5-0.5h-3.2c-0.2 0-0.5 0.2-0.5 0.5s0.3 0.5 0.5 0.5z" width="50" height="50"/>
<g transform="translate(25)">
<path d="m12.4 23.3c6.1 0 10.9-4.8 10.9-10.9 0-6-4.8-10.9-10.9-10.9-6 0-10.9 4.9-10.9 10.9 0 6.1 4.9 10.9 10.9 10.9zm0-1c-5.5 0-9.9-4.4-9.9-9.9s4.4-9.9 9.9-9.9 9.9 4.4 9.9 9.9-4.4 9.9-9.9 9.9zm-4.7-12.1l0.5-0.5c0.2-0.1 0.4-0.3 0.5-0.3 0.1-0.1 0.2-0.1 0.2-0.1s0.2 0.1 0.4 0.3l0.1 0.1c0.3 0.2 0.5 0.4 0.6 0.5 0.2 0.2 0.5 0.2 0.7 0s0.2-0.5 0-0.7c-0.2-0.1-0.4-0.4-0.6-0.6-0.1 0-0.1-0.1-0.2-0.1-0.4-0.3-0.7-0.5-1-0.5-0.2 0-0.4 0.1-0.6 0.2-0.3 0.1-0.5 0.2-0.7 0.4l-0.6 0.6c-0.2 0.2-0.2 0.6 0 0.7 0.2 0.2 0.6 0.2 0.7 0zm7.5-0.5c0.2-0.1 0.4-0.3 0.5-0.3 0.1-0.1 0.2-0.1 0.2-0.1s0.2 0.1 0.4 0.3l0.1 0.1c0.3 0.2 0.5 0.4 0.6 0.5 0.2 0.2 0.5 0.2 0.7 0s0.2-0.5 0-0.7c-0.2-0.1-0.4-0.4-0.6-0.6-0.1 0-0.1-0.1-0.2-0.1-0.4-0.3-0.7-0.5-1-0.5-0.2 0-0.4 0.1-0.6 0.2-0.3 0.1-0.5 0.2-0.7 0.4l-0.6 0.6c-0.2 0.2-0.2 0.6 0 0.7 0.2 0.2 0.6 0.2 0.7 0l0.5-0.5zm-9.4 5.8c0 1.3 1.1 2.5 2.5 2.5h8.1c1.4 0 2.5-1.2 2.5-2.5 0-1.4-1.1-2.5-2.5-2.5h-8.1c-1.4 0-2.5 1.1-2.5 2.5zm1 0c0-0.9 0.6-1.5 1.5-1.5h8.1c0.8 0 1.5 0.6 1.5 1.5 0 0.8-0.7 1.5-1.5 1.5h-8.1c-0.9 0-1.5-0.7-1.5-1.5z" width="50" height="50"/>
</g>
<g transform="translate(50)">
<path d="m12.4 23.3c6.1 0 10.9-4.8 10.9-10.9 0-6-4.8-10.9-10.9-10.9-6 0-10.9 4.9-10.9 10.9 0 6.1 4.9 10.9 10.9 10.9zm0.1-4.8c1.7 0 3-1.3 3-3s-1.3-3-3-3-3 1.3-3 3 1.3 3 3 3zm4 3c-1.3 0.5-2.6 0.8-4.1 0.8-1.4 0-2.7-0.2-3.9-0.8v-12.3l0.2 0.2c0.2 0.1 0.3 0.3 0.5 0.4l0.2 0.2c0.2 0.2 0.5 0.2 0.7 0s0.2-0.5 0-0.7c-0.1 0-0.1-0.1-0.2-0.2-0.2-0.2-0.4-0.3-0.6-0.5 0 0-0.1-0.1-0.2-0.1-0.5-0.4-0.8-0.6-1.1-0.6-0.2 0-0.5 0-0.7 0.2-0.3 0.1-0.6 0.3-0.9 0.5-0.2 0.2-0.3 0.4-0.5 0.5l-0.2 0.2c-0.2 0.2-0.1 0.6 0.1 0.7 0.2 0.2 0.5 0.2 0.7 0 0.1-0.2 0.3-0.4 0.6-0.6 0.1-0.1 0.2-0.2 0.4-0.3v11.9c-3-1.7-5-4.9-5-8.6 0-5.5 4.4-9.9 9.9-9.9s9.9 4.4 9.9 9.9c0 3.7-1.9 6.9-4.8 8.6v-11.8 0.1c0.1 0 0.2 0.1 0.2 0.1 0.2 0.2 0.4 0.3 0.5 0.4l0.2 0.2c0.2 0.2 0.5 0.2 0.7 0s0.2-0.5 0-0.7l-0.2-0.2c-0.2-0.1-0.4-0.3-0.5-0.4l-0.2-0.2c-0.5-0.4-0.9-0.6-1.2-0.6-0.2 0-0.5 0.1-0.7 0.2-0.3 0.1-0.6 0.3-0.9 0.6-0.1 0.1-0.3 0.3-0.5 0.4-0.1 0.1-0.1 0.2-0.2 0.3-0.1 0.2-0.1 0.5 0.1 0.7 0.2 0.1 0.5 0.1 0.7-0.1 0.1-0.1 0.3-0.4 0.6-0.6 0.1-0.1 0.2-0.2 0.4-0.3v12.4zm-4-4c-1.1 0-2-0.9-2-2s0.9-2 2-2 2 0.9 2 2-0.9 2-2 2z" width="50" height="50"/>
</g>
<g transform="translate(75)">
<path d="m12.4 23.3c6.1 0 10.9-4.8 10.9-10.9 0-6-4.8-10.9-10.9-10.9-6 0-10.9 4.9-10.9 10.9 0 6.1 4.9 10.9 10.9 10.9zm-1.5-7.3c0-0.8 0.7-1.5 1.5-1.5 0.9 0 1.5 0.7 1.5 1.5v1.1 0.8 0.1c0 0.8-0.6 1.5-1.5 1.5-0.8 0-1.5-0.7-1.5-1.5v-2zm4.8-6.2-1.4-1.4c-0.2-0.2-0.2-0.5-0.1-0.7 0.2-0.2 0.6-0.2 0.8 0l1.4 1.4 1.5-1.4c0.2-0.2 0.5-0.2 0.7 0s0.2 0.5 0 0.7l-1.5 1.4 1.5 1.4c0.2 0.2 0.2 0.5 0 0.7s-0.5 0.2-0.7 0l-1.5-1.4-1.4 1.4c-0.2 0.2-0.5 0.2-0.7 0s-0.2-0.6 0-0.7l1.4-1.4zm-8 0l-1.4-1.4c-0.2-0.2-0.2-0.5-0.1-0.7 0.2-0.2 0.6-0.2 0.8 0l1.4 1.4 1.5-1.4c0.2-0.2 0.5-0.2 0.7 0s0.2 0.5 0 0.7l-1.5 1.4 1.5 1.4c0.2 0.2 0.2 0.5 0 0.7s-0.5 0.2-0.7 0l-1.5-1.4-1.4 1.4c-0.2 0.2-0.5 0.2-0.7 0s-0.2-0.6 0-0.7l1.4-1.4zm4.7 12.5c-5.5 0-9.9-4.4-9.9-9.9s4.4-9.9 9.9-9.9 9.9 4.4 9.9 9.9-4.4 9.9-9.9 9.9zm-2.5-6.3v2c0 1.4 1.2 2.5 2.5 2.5 1.4 0 2.5-1.1 2.5-2.5v-0.1-0.8-1.1c0-1.4-1.1-2.5-2.5-2.5-1.3 0-2.5 1.1-2.5 2.5z" width="50" height="50"/>
</g>
<g transform="translate(100)">
<path d="m20.4 17.1c0-0.8 0.6-1.4 1.4-1.4s1.4 0.6 1.4 1.4c0 0.4-0.1 0.7-0.4 1l-2.9 2.9-3-2.9c-0.2-0.3-0.4-0.6-0.4-1 0-0.8 0.7-1.4 1.5-1.4 0.7 0 1.4 0.6 1.4 1.4h1zm3.2 1.6c0.4-0.4 0.6-1 0.6-1.6 0-1.2-0.9-2.2-2.1-2.4 0.2-0.7 0.2-1.5 0.2-2.3 0-6-4.8-10.9-10.9-10.9-6 0-10.9 4.9-10.9 10.9 0 6.1 4.9 10.9 10.9 10.9 2.6 0 5-0.8 7-2.4l0.9 0.8 0.6 0.7 3.6-3.6 0.1-0.1zm-6 1.5c-1.7 1.4-3.9 2.1-6.2 2.1-5.5 0-9.9-4.4-9.9-9.9s4.4-9.9 9.9-9.9 9.9 4.4 9.9 9.9c0 0.8 0 1.6-0.2 2.4-0.5 0.1-0.9 0.4-1.2 0.8-0.5-0.6-1.2-0.9-1.9-0.9-1.4 0-2.5 1.1-2.5 2.4 0 0.6 0.3 1.2 0.7 1.6h-0.1l0.1 0.1 1.4 1.4zm-7.1-4.6c-0.1 0.2-0.1 0.5 0.1 0.7l1 0.8-0.9 0.9c-0.3 0.1-0.3 0.5-0.1 0.7s0.5 0.2 0.7 0l1.4-1.2c0.2-0.1 0.3-0.5 0.1-0.7 0 0-0.1 0-0.1-0.1l-1.1-0.8 1.1-0.9c0.2-0.2 0.3-0.5 0.1-0.7 0-0.1-0.1-0.1-0.1-0.1v-0.1l-1.5-1.2c-0.2-0.1-0.5-0.1-0.7 0.1s-0.1 0.5 0.1 0.7l1 0.9-0.9 0.8c-0.1 0.1-0.2 0.1-0.2 0.2zm3-5.6c0.1-0.1 0.3-0.4 0.6-0.6 0.2-0.2 0.4-0.3 0.6-0.4s0.3-0.1 0.3-0.1 0.3 0.1 0.5 0.4c0.1 0 0.2 0.1 0.2 0.1 0.2 0.2 0.4 0.3 0.5 0.4l0.2 0.2c0.2 0.2 0.5 0.2 0.7 0s0.2-0.5 0-0.7l-0.2-0.2c-0.2-0.1-0.4-0.3-0.5-0.4l-0.2-0.2c-0.5-0.4-0.9-0.6-1.2-0.6-0.2 0-0.5 0.1-0.7 0.2-0.3 0.1-0.6 0.3-0.9 0.6-0.1 0.1-0.3 0.3-0.5 0.4-0.1 0.1-0.1 0.2-0.2 0.3-0.1 0.2-0.1 0.5 0.1 0.7 0.2 0.1 0.5 0.1 0.7-0.1zm-7 0c0.1-0.1 0.3-0.4 0.6-0.6 0.2-0.2 0.4-0.3 0.6-0.4s0.3-0.1 0.3-0.1 0.3 0.1 0.5 0.4c0.1 0 0.2 0.1 0.2 0.1 0.2 0.2 0.4 0.3 0.5 0.4l0.2 0.2c0.2 0.2 0.5 0.2 0.7 0s0.2-0.5 0-0.7l-0.2-0.2c-0.2-0.1-0.4-0.3-0.5-0.4l-0.2-0.2c-0.5-0.4-0.9-0.6-1.2-0.6-0.2 0-0.5 0.1-0.7 0.2-0.3 0.1-0.6 0.3-0.9 0.6-0.1 0.1-0.3 0.3-0.5 0.4-0.1 0.1-0.1 0.2-0.2 0.3-0.1 0.2-0.1 0.5 0.1 0.7 0.2 0.1 0.5 0.1 0.7-0.1z" width="50" height="50"/>
</g>
<g transform="translate(125)">
<path d="m12.4 23.3c6.1 0 10.9-4.8 10.9-10.9 0-6-4.8-10.9-10.9-10.9-6 0-10.9 4.9-10.9 10.9 0 6.1 4.9 10.9 10.9 10.9zm0-1c-5.5 0-9.9-4.4-9.9-9.9s4.4-9.9 9.9-9.9 9.9 4.4 9.9 9.9-4.4 9.9-9.9 9.9zm1.1-12.8c0 1.2 1 2.2 2.2 2.2s2.2-1 2.2-2.2h-1c0 0.7-0.5 1.2-1.2 1.2s-1.2-0.5-1.2-1.2h-1zm-6.6 0c0 1.2 1 2.2 2.2 2.2s2.2-1 2.2-2.2h-1c0 0.7-0.5 1.2-1.2 1.2-0.6 0-1.2-0.5-1.2-1.2h-1zm-1.4 6.5h14v-1h-14v1z" width="50" height="50"/>
</g>
<g transform="translate(150)">
<path d="m19 15.8c0.2 0.4 0.4 0.7 0.7 1 0.4 0.3 0.8 0.5 1.3 0.6-1.8 3-5 4.9-8.6 4.9-3.8 0-7.2-2.1-8.8-5.4l-0.9 0.5c1.8 3.6 5.6 5.9 9.7 5.9s7.8-2.2 9.7-5.8c0.8-0.1 1.5-0.5 2-1.1 1.2-1.3 1-3.3-0.3-4.5-0.6-0.4-1.6-0.7-3-1-0.6-0.1-1.4-0.2-2.1-0.3-0.4 0-0.7 0-0.9-0.1h-0.7l0.2 0.7c0 0.1 0.1 0.4 0.2 0.8 0.2 0.7 0.4 1.4 0.7 2 0 0.1 0 0.2 0.1 0.3-0.4 3-3 5.2-6 5.2-2.8 0-5.3-2-5.8-4.8l-1 0.2c0.6 3.2 3.5 5.6 6.8 5.6 3.1 0 5.7-1.9 6.7-4.7zm-11.7-4.3-0.6-0.6c0 0.2-0.1 0.5-0.2 0.9l-0.6 1.8c-0.5 1.2-0.9 2.1-1.2 2.4h-0.1c-0.9 0.8-2.2 0.7-3-0.2-0.8-1-0.7-2.3 0.3-3.1 0.3-0.3 1.2-0.6 2.4-0.8 0.7-0.1 1.4-0.2 2-0.3 0.5 0 0.8 0 1-0.1zm-5.8 0.2c-0.1 0.1-0.2 0.2-0.3 0.2-1.3 1.2-1.5 3.2-0.4 4.5s3.1 1.5 4.5 0.4c0.5-0.5 1-1.5 1.5-2.8 0.1-0.2 0.1-0.3 0.2-0.5h11.4v-1h-11.1c0.1-0.2 0.1-0.3 0.2-0.5 0.1-0.4 0.2-0.7 0.2-0.8l0.2-0.7h-0.7c-0.2 0.1-0.5 0.1-1 0.1-0.7 0.1-1.4 0.2-2 0.3s-1.2 0.3-1.6 0.4c0.4-5 4.6-8.8 9.8-8.8 5.5 0 9.9 4.2 9.9 9.7h1c0-6-4.8-10.7-10.9-10.7-5.9 0-10.6 4.5-10.9 10.2zm16.2-0.2c0.2 0.1 0.5 0.1 0.9 0.1 0.7 0.1 1.4 0.2 2 0.3 1.3 0.2 2.2 0.5 2.5 0.8 0.9 0.8 1.1 2.1 0.3 3.1-0.8 0.9-2.1 1-3.1 0.2-0.3-0.3-0.8-1.2-1.2-2.4l-0.6-1.8c-0.1-0.4-0.2-0.7-0.3-0.9l-0.5 0.6zm-2.5-2.1c0.2-0.2 0.4-0.3 0.5-0.4 0.1 0 0.2-0.1 0.2-0.1s0.2 0.2 0.4 0.3c0 0.1 0.1 0.1 0.1 0.2 0.3 0.1 0.5 0.3 0.6 0.5 0.2 0.2 0.5 0.1 0.7-0.1s0.2-0.5 0-0.7c-0.2-0.1-0.4-0.3-0.6-0.5-0.1-0.1-0.2-0.1-0.2-0.2-0.4-0.3-0.7-0.5-1-0.5-0.2 0-0.4 0.1-0.6 0.2-0.3 0.1-0.5 0.3-0.8 0.5-0.2 0.2-0.4 0.4-0.5 0.6-0.2 0.2-0.2 0.5 0 0.7s0.5 0.1 0.7-0.1c0.1-0.1 0.3-0.3 0.5-0.4zm-7.5 0.4c0.1-0.1 0.3-0.3 0.5-0.4 0.2-0.2 0.4-0.3 0.5-0.4 0.1 0 0.2-0.1 0.2-0.1s0.2 0.2 0.4 0.3c0 0.1 0.1 0.1 0.1 0.2 0.3 0.1 0.5 0.3 0.6 0.5 0.2 0.2 0.5 0.1 0.7-0.1s0.2-0.5 0-0.7c-0.2-0.1-0.4-0.3-0.6-0.5-0.1-0.1-0.2-0.1-0.2-0.2-0.4-0.3-0.7-0.5-1-0.5-0.2 0-0.4 0.1-0.6 0.2-0.3 0.1-0.5 0.3-0.8 0.5-0.2 0.2-0.4 0.4-0.5 0.6-0.2 0.2-0.2 0.5 0 0.7s0.5 0.1 0.7-0.1z" width="50" height="50"/>
</g>
<g transform="translate(175)">
<path d="m12.4 23.3c6.1 0 10.9-4.8 10.9-10.9 0-6-4.8-10.9-10.9-10.9-6 0-10.9 4.9-10.9 10.9 0 6.1 4.9 10.9 10.9 10.9zm0-1c-5.5 0-9.9-4.4-9.9-9.9s4.4-9.9 9.9-9.9 9.9 4.4 9.9 9.9-4.4 9.9-9.9 9.9zm-2.6-6.9c0 1.5 1.2 2.7 2.7 2.7s2.7-1.2 2.7-2.7h-1c0 1-0.8 1.7-1.7 1.7s-1.7-0.7-1.7-1.7h-1zm4.7-5.3l0.6 0.6c0.2 0.2 0.4 0.3 0.6 0.4s0.3 0.1 0.3 0.1 0.3-0.2 0.5-0.4c0.1 0 0.2-0.1 0.2-0.1 0.2-0.2 0.4-0.3 0.5-0.5 0.1-0.1 0.2-0.1 0.2-0.2 0.2-0.2 0.5-0.1 0.7 0.1s0.2 0.5 0 0.7l-0.2 0.2c-0.2 0.1-0.4 0.3-0.5 0.4s-0.2 0.1-0.2 0.2c-0.5 0.4-0.9 0.6-1.2 0.6-0.2 0-0.5-0.1-0.7-0.2-0.3-0.1-0.6-0.3-0.9-0.6l-0.5-0.5-0.2-0.2c-0.1-0.2-0.1-0.5 0.1-0.7s0.5-0.1 0.7 0.1zm-7 0l0.6 0.6c0.2 0.2 0.4 0.3 0.6 0.4s0.3 0.1 0.3 0.1 0.3-0.2 0.5-0.4c0.1 0 0.2-0.1 0.2-0.1 0.2-0.2 0.4-0.3 0.5-0.5 0.1-0.1 0.2-0.1 0.2-0.2 0.2-0.2 0.5-0.1 0.7 0.1s0.2 0.5 0 0.7l-0.2 0.2c-0.2 0.1-0.4 0.3-0.5 0.4s-0.2 0.1-0.2 0.2c-0.5 0.4-0.9 0.6-1.2 0.6-0.2 0-0.5-0.1-0.7-0.2-0.3-0.1-0.6-0.3-0.9-0.6l-0.5-0.5-0.2-0.2c-0.1-0.2-0.1-0.5 0.1-0.7s0.5-0.1 0.7 0.1z" width="50" height="50"/>
</g>
<g transform="translate(200)">
<path d="m21.2 18.9c1.4-1.8 2.1-4.1 2.1-6.5 0-6-4.8-10.9-10.9-10.9-6 0-10.9 4.9-10.9 10.9 0 6.1 4.9 10.9 10.9 10.9 2.3 0 4.5-0.6 6.3-1.9 0.6 0 1.3-0.2 1.8-0.7s0.7-1.2 0.7-1.8zm-3.8 2.1c-1.5 0.9-3.2 1.3-5 1.3-5.5 0-9.9-4.4-9.9-9.9s4.4-9.9 9.9-9.9 9.9 4.4 9.9 9.9c0 1.9-0.5 3.7-1.4 5.2-0.1-0.1-0.3-0.3-0.4-0.5h-0.1c-0.9-0.9-0.9-0.9-1.3-1.4h-0.1c0.2-0.7 0.3-1.4 0.3-2.2v-0.5h-1v0.5c0 3.3-2.6 6-6 6-3.3 0-6-2.7-6-6 0-0.2 0.1-0.3 0.1-0.5h-1c0 0.1-0.1 0.3-0.1 0.5 0 3.9 3.2 7 7 7 1.3 0 2.5-0.3 3.6-0.9l0.3 0.3 0.8 0.8c0.1 0.1 0.2 0.2 0.4 0.3zm-0.7-2c0.8-0.6 1.4-1.4 1.9-2.3 0.3 0.2 0.4 0.4 1.1 1.1h0.1c0.6 0.6 0.6 1.6 0 2.1-0.6 0.6-1.6 0.6-2.1 0.1l-0.8-0.8-0.2-0.2zm-2.2-9c0.1-0.1 0.3-0.4 0.6-0.6 0.2-0.2 0.4-0.3 0.6-0.4s0.3-0.1 0.3-0.1 0.3 0.1 0.5 0.4c0.1 0 0.2 0.1 0.2 0.1 0.2 0.2 0.4 0.3 0.5 0.4l0.2 0.2c0.2 0.2 0.5 0.2 0.7 0s0.2-0.5 0-0.7l-0.2-0.2c-0.2-0.1-0.4-0.3-0.5-0.4l-0.2-0.2c-0.5-0.4-0.9-0.6-1.2-0.6-0.2 0-0.5 0.1-0.7 0.2-0.3 0.1-0.6 0.3-0.9 0.6-0.1 0.1-0.3 0.3-0.5 0.4-0.1 0.1-0.1 0.2-0.2 0.3-0.1 0.2-0.1 0.5 0.1 0.7 0.2 0.1 0.5 0.1 0.7-0.1zm-7 0c0.1-0.1 0.3-0.4 0.6-0.6 0.2-0.2 0.4-0.3 0.6-0.4s0.3-0.1 0.3-0.1 0.3 0.1 0.5 0.4c0.1 0 0.2 0.1 0.2 0.1 0.2 0.2 0.4 0.3 0.5 0.4l0.2 0.2c0.2 0.2 0.5 0.2 0.7 0s0.2-0.5 0-0.7l-0.2-0.2c-0.2-0.1-0.4-0.3-0.5-0.4l-0.2-0.2c-0.5-0.4-0.9-0.6-1.2-0.6-0.2 0-0.5 0.1-0.7 0.2-0.3 0.1-0.6 0.3-0.9 0.6-0.1 0.1-0.3 0.3-0.5 0.4-0.1 0.1-0.1 0.2-0.2 0.3-0.1 0.2-0.1 0.5 0.1 0.7 0.2 0.1 0.5 0.1 0.7-0.1z" width="50" height="50"/>
</g>
<g transform="translate(225)">
<path d="m18.4 3.3c-1.8-1.2-3.8-1.8-6-1.8-6 0-10.9 4.9-10.9 10.9 0 6.1 4.9 10.9 10.9 10.9 6.1 0 10.9-4.8 10.9-10.9 0-2-0.5-3.9-1.5-5.6-0.1-0.4-0.3-1-0.7-1.7-0.1-0.3-0.3-0.5-0.4-0.7-0.2-0.5-0.5-0.9-0.8-1.2-0.1-0.3-0.2-0.4-0.3-0.5l-0.4-0.6-0.4 0.6c-0.1 0.1-0.2 0.2-0.4 0.5v0.1zm3.1 5.1c0.6 1.3 0.8 2.6 0.8 4 0 5.5-4.4 9.9-9.9 9.9s-9.9-4.4-9.9-9.9 4.4-9.9 9.9-9.9c2 0 3.8 0.6 5.4 1.6 0 0.1-0.1 0.2-0.1 0.3-0.2 0.2-0.3 0.4-0.4 0.7-0.5 0.8-0.8 1.5-0.8 2.1 0 1.4 1.2 2.6 2.7 2.6 1 0 1.9-0.5 2.3-1.4zm-2.2 5.1c0 3.9-3.1 7-7 7-3.8 0-7-3.1-7-7 0-0.1 0.1-0.1 0.1-0.2 0.3 0.2 0.6 0.3 1 0.5 0.1 3.2 2.7 5.7 5.9 5.7s5.8-2.5 6-5.6c0.4-0.1 0.7-0.3 1-0.4 0.1 0 0.1-0.1 0.1-0.1l-0.5-0.8c-1.9 1-4.1 1.5-6.4 1.5-2.4 0-4.7-0.6-6.7-1.7l-0.5 0.9c2.2 1.2 4.7 1.8 7.2 1.8 2.4 0 4.8-0.6 6.8-1.6zm-13.9-0.3zm13.9 0.2zm-4.3-3c0.2-0.2 0.4-0.3 0.6-0.4 0.1-0.1 0.2-0.1 0.3-0.1 0 0 0.2 0.1 0.5 0.4 0.1 0 0.1 0.1 0.2 0.1 0.2 0.2 0.3 0.3 0.5 0.4l0.2 0.2c0.2 0.2 0.5 0.2 0.7 0s0.2-0.5 0-0.7l-0.2-0.2c-0.2-0.1-0.4-0.3-0.6-0.4 0-0.1-0.1-0.2-0.2-0.2-0.5-0.4-0.8-0.6-1.1-0.6-0.2 0-0.5 0.1-0.7 0.2-0.3 0.1-0.6 0.3-0.9 0.6-0.2 0.1-0.3 0.3-0.5 0.4-0.1 0.1-0.1 0.2-0.2 0.3-0.2 0.2-0.1 0.5 0.1 0.7 0.2 0.1 0.5 0.1 0.7-0.1 0.1-0.1 0.3-0.4 0.6-0.6zm-7.5 0.6c0.1-0.1 0.3-0.4 0.6-0.6 0.2-0.2 0.4-0.3 0.6-0.4s0.3-0.1 0.3-0.1 0.3 0.1 0.5 0.4c0.1 0 0.2 0.1 0.2 0.1 0.2 0.2 0.4 0.3 0.5 0.4l0.2 0.2c0.2 0.2 0.5 0.2 0.7 0s0.2-0.5 0-0.7l-0.2-0.2c-0.2-0.1-0.4-0.3-0.5-0.4l-0.2-0.2c-0.5-0.4-0.9-0.6-1.2-0.6-0.2 0-0.5 0.1-0.7 0.2-0.3 0.1-0.6 0.3-0.9 0.6-0.1 0.1-0.3 0.3-0.5 0.4-0.1 0.1-0.1 0.2-0.2 0.3-0.1 0.2-0.1 0.5 0.1 0.7 0.2 0.1 0.5 0.1 0.7-0.1zm11.3-7.8c0 0.1 0.2 0.3 0.3 0.5 0.3 0.4 0.5 0.8 0.7 1.2 0.2 0.2 0.3 0.4 0.4 0.6 0.4 0.8 0.6 1.4 0.6 1.7 0 0.9-0.7 1.6-1.6 1.6s-1.7-0.7-1.7-1.6c0-0.3 0.3-0.9 0.7-1.7l0.3-0.6c0.3-0.4 0.5-0.8 0.8-1.2 0.1-0.2 0.2-0.4 0.3-0.5h-0.8z" width="50" height="50"/>
</g>
<g transform="translate(250)">
<path d="m12.4 23.3c6.1 0 10.9-4.8 10.9-10.9 0-6-4.8-10.9-10.9-10.9-6 0-10.9 4.9-10.9 10.9 0 6.1 4.9 10.9 10.9 10.9zm0-1c-5.5 0-9.9-4.4-9.9-9.9s4.4-9.9 9.9-9.9 9.9 4.4 9.9 9.9-4.4 9.9-9.9 9.9zm4.4-15.2c-0.1 0.1-0.3 0.1-0.5 0.2-0.3 0.1-0.7 0.3-1 0.4-1.1 0.5-1.8 1-1.8 1.7 0 0.6 0.7 1.1 1.8 1.6 0.3 0.2 0.7 0.3 1 0.4 0.2 0.1 0.4 0.2 0.5 0.2l0.5 0.1 0.3-0.9-0.5-0.2c-0.1 0-0.2 0-0.4-0.1-0.4-0.1-0.7-0.3-1-0.4-0.7-0.3-1.2-0.6-1.2-0.7s0.5-0.5 1.2-0.8c0.3-0.1 0.6-0.2 1-0.4 0.2 0 0.3-0.1 0.4-0.1l0.5-0.2-0.3-0.9-0.5 0.1zm-9.1 1c0.1 0 0.3 0.1 0.4 0.2 0.4 0.1 0.7 0.2 1 0.3 0.7 0.4 1.2 0.7 1.2 0.8s-0.5 0.4-1.2 0.7c-0.3 0.2-0.6 0.3-1 0.4-0.1 0.1-0.3 0.1-0.4 0.2l-0.5 0.1 0.3 1 0.5-0.2c0.1 0 0.3-0.1 0.5-0.1 0.3-0.2 0.7-0.3 1-0.5 1.1-0.5 1.8-0.9 1.8-1.6s-0.7-1.2-1.8-1.7c-0.3-0.1-0.7-0.3-1-0.4-0.2-0.1-0.4-0.1-0.5-0.1l-0.5-0.2-0.3 1 0.5 0.1zm11.6 4.9v-0.5h-0.5-12.9-0.5v0.5c0 0.1-0.1 0.3-0.1 0.5 0 3.9 3.2 7 7 7 3.9 0 7-3.1 7-7v-0.5zm-1 0v0.5c0 3.3-2.6 6-6 6-3.3 0-6-2.7-6-6 0-0.2 0.1-0.3 0.1-0.5h-0.5v0.5h12.9v-0.5h-0.5z" width="50" height="50"/>
</g>
<g transform="translate(275)">
<path d="m3.3 8.4c-0.5 1.2-0.8 2.6-0.8 4 0 5.5 4.4 9.9 9.9 9.9s9.9-4.4 9.9-9.9c0-1.4-0.3-2.8-0.8-4l-0.8 2.8c-0.2 0.7-0.9 1.3-1.7 1.3h-4c-0.8 0-1.5-0.6-1.8-1.3l-0.8-2.6-0.7 2.6c-0.2 0.7-0.9 1.3-1.7 1.3h-4c-0.8 0-1.5-0.6-1.8-1.3l-0.9-2.8zm8.3-0.4h-7.3l0.9 2.9c0.1 0.3 0.5 0.6 0.8 0.6h4c0.3 0 0.7-0.3 0.8-0.6l0.8-2.9zm9.1-1c-1.7-2.7-4.8-4.5-8.3-4.5s-6.5 1.8-8.3 4.5h16.6zm-7.4 1 0.9 2.9c0.1 0.3 0.5 0.6 0.8 0.6h4c0.3 0 0.7-0.3 0.8-0.6l0.8-2.9h-7.3zm9.1 0c0.6 1.4 0.9 2.8 0.9 4.4 0 6.1-4.8 10.9-10.9 10.9-6 0-10.9-4.8-10.9-10.9 0-1.6 0.3-3 0.9-4.4h-0.9v-1h1.4c1.9-3.3 5.5-5.5 9.5-5.5 4.1 0 7.6 2.2 9.5 5.5h1.6v1h-1.1zm-13.8 7.4c0 2.1 1.8 3.9 3.9 3.9s3.8-1.8 3.8-3.9h-1c0 1.6-1.3 2.9-2.8 2.9-1.6 0-2.9-1.3-2.9-2.9h-1z" width="50" height="50"/>
</g>
<g transform="translate(300)">
<path d="m15.4 10.1h2.8c0.3 0 0.5 0.3 0.5 0.5 0 0.3-0.2 0.5-0.5 0.5h-4c-0.2 0-0.5-0.2-0.5-0.5 0-0.1 0.1-0.3 0.2-0.3 0-0.1 0.1-0.1 0.1-0.1l1-1c0.2-0.2 0.5-0.2 0.7 0s0.2 0.5 0 0.7l-0.3 0.2zm-3 13.2c6.1 0 10.9-4.8 10.9-10.9 0-6-4.8-10.9-10.9-10.9-6 0-10.9 4.9-10.9 10.9 0 6.1 4.9 10.9 10.9 10.9zm0-1c-5.5 0-9.9-4.4-9.9-9.9s4.4-9.9 9.9-9.9 9.9 4.4 9.9 9.9-4.4 9.9-9.9 9.9zm-4.9-11.3c0.1-0.1 0.3-0.4 0.6-0.6 0.2-0.2 0.4-0.3 0.6-0.4s0.3-0.1 0.3-0.1 0.3 0.1 0.5 0.4c0.1 0 0.2 0.1 0.2 0.1 0.2 0.2 0.4 0.3 0.5 0.4l0.2 0.2c0.2 0.2 0.5 0.2 0.7 0s0.2-0.5 0-0.7l-0.2-0.2c-0.2-0.1-0.4-0.3-0.5-0.4l-0.2-0.2c-0.5-0.4-0.9-0.6-1.2-0.6-0.2 0-0.5 0.1-0.7 0.2-0.3 0.1-0.6 0.3-0.9 0.6-0.1 0.1-0.3 0.3-0.5 0.4-0.1 0.1-0.1 0.2-0.2 0.3-0.1 0.2-0.1 0.5 0.1 0.7 0.2 0.1 0.5 0.1 0.7-0.1zm1.1 4.4c0 2.1 1.8 3.9 3.9 3.9s3.8-1.8 3.8-3.9h-1c0 1.6-1.3 2.9-2.8 2.9-1.6 0-2.9-1.3-2.9-2.9h-1z" width="50" height="50"/>
</g>
<g transform="translate(325)">
<path d="m16.6 9.1c0-0.5 0.4-1 0.9-1 0.6 0 1 0.5 1 1 0 0.2-0.1 0.5-0.3 0.6l-2 2.1-2.2-2.1c-0.2-0.1-0.3-0.4-0.3-0.6 0-0.5 0.5-0.9 1-0.9s0.9 0.4 0.9 0.9h1zm-3.4 1.3h0.1v0.1l2.7 2.6 0.2 0.1 2.7-2.8h0.1c0.3-0.4 0.5-0.8 0.5-1.3 0-1.1-0.9-2-2-2-0.5 0-1 0.3-1.4 0.7-0.3-0.4-0.9-0.6-1.4-0.6-1.1 0-2 0.8-2 1.9 0 0.5 0.2 0.9 0.5 1.3zm-4-1.3c0-0.5 0.4-0.9 0.9-0.9s0.9 0.4 0.9 0.9c0 0.2 0 0.5-0.2 0.6l-2.1 2.1-2.1-2.1c-0.2-0.1-0.3-0.4-0.3-0.6 0-0.5 0.4-0.9 0.9-0.9 0.6 0 1 0.4 1 0.9h1zm-3.4 1.3v0.1h0.1l2.2 2.1 0.6 0.6 2.8-2.8h0.1-0.1c0.4-0.4 0.5-0.8 0.5-1.3 0-1.1-0.8-1.9-1.9-1.9-0.6 0-1.1 0.2-1.4 0.6-0.4-0.4-0.9-0.6-1.5-0.6-1 0-1.9 0.8-1.9 1.9 0 0.5 0.2 0.9 0.5 1.3zm6.6 12.9c6.1 0 10.9-4.8 10.9-10.9 0-6-4.8-10.9-10.9-10.9-6 0-10.9 4.9-10.9 10.9 0 6.1 4.9 10.9 10.9 10.9zm0-1c-5.5 0-9.9-4.4-9.9-9.9s4.4-9.9 9.9-9.9 9.9 4.4 9.9 9.9-4.4 9.9-9.9 9.9zm-3.2-6.6c0 1.8 1.5 3.3 3.3 3.3s3.2-1.5 3.2-3.3h-1c0 1.3-1 2.3-2.2 2.3-1.3 0-2.3-1-2.3-2.3h-1z" width="50" height="50"/>
</g>
<g transform="translate(350)">
<path d="m12.4 23.3c6.1 0 10.9-4.8 10.9-10.9 0-6-4.8-10.9-10.9-10.9-6 0-10.9 4.9-10.9 10.9 0 6.1 4.9 10.9 10.9 10.9zm-7-10.1c0 0.1-0.1 0.2-0.1 0.3 0 3.9 3.2 7 7 7 3.9 0 7-3.1 7-7v-0.1h-1v0.1c0 3.3-2.6 6-6 6-3.3 0-6-2.7-6-6 0-0.1 0.1-0.2 0.1-0.2l-1-0.1zm7 9.1c-5.5 0-9.9-4.4-9.9-9.9s4.4-9.9 9.9-9.9 9.9 4.4 9.9 9.9-4.4 9.9-9.9 9.9zm6.5-9.7c-1.9 1-4.1 1.5-6.4 1.5-2.4 0-4.7-0.6-6.7-1.7l-0.5 0.9c2.2 1.2 4.7 1.8 7.2 1.8 2.4 0 4.8-0.6 6.9-1.7l-0.5-0.8zm-4.4-1.6c0.1-0.1 0.3-0.4 0.6-0.6 0.2-0.2 0.4-0.3 0.6-0.4s0.3-0.1 0.3-0.1 0.3 0.1 0.5 0.4c0.1 0 0.2 0.1 0.2 0.1 0.2 0.2 0.4 0.3 0.5 0.4l0.2 0.2c0.2 0.2 0.5 0.2 0.7 0s0.2-0.5 0-0.7l-0.2-0.2c-0.2-0.1-0.4-0.3-0.5-0.4l-0.2-0.2c-0.5-0.4-0.9-0.6-1.2-0.6-0.2 0-0.5 0.1-0.7 0.2-0.3 0.1-0.6 0.3-0.9 0.6-0.1 0.1-0.3 0.3-0.5 0.4-0.1 0.1-0.1 0.2-0.2 0.3-0.1 0.2-0.1 0.5 0.1 0.7 0.2 0.1 0.5 0.1 0.7-0.1zm-7 0c0.1-0.1 0.3-0.4 0.6-0.6 0.2-0.2 0.4-0.3 0.6-0.4s0.3-0.1 0.3-0.1 0.3 0.1 0.5 0.4c0.1 0 0.2 0.1 0.2 0.1 0.2 0.2 0.4 0.3 0.5 0.4l0.2 0.2c0.2 0.2 0.5 0.2 0.7 0s0.2-0.5 0-0.7l-0.2-0.2c-0.2-0.1-0.4-0.3-0.5-0.4l-0.2-0.2c-0.5-0.4-0.9-0.6-1.2-0.6-0.2 0-0.5 0.1-0.7 0.2-0.3 0.1-0.6 0.3-0.9 0.6-0.1 0.1-0.3 0.3-0.5 0.4-0.1 0.1-0.1 0.2-0.2 0.3-0.1 0.2-0.1 0.5 0.1 0.7 0.2 0.1 0.5 0.1 0.7-0.1z" width="50" height="50"/>
</g>
<g transform="translate(375)">
<path d="m6 16.1v0.1l-2.4 0.8c-0.7-1.4-1.1-2.9-1.1-4.6v-0.2l3.5 2.5v0.1 1.3zm13-1.3 3.4-2.7v0.3c0 1.6-0.4 3.2-1.1 4.5l-2.3-0.8v-1.3zm1.8 3c-1.7 2.7-4.8 4.5-8.3 4.5s-6.6-1.7-8.3-4.4l1.8-0.7v2.4h13v-2.4l1.8 0.6zm-18.2-6.7c0.7-4.9 4.8-8.6 9.9-8.6 4.9 0 9 3.6 9.8 8.4l-3.3 2.6v-1.9h-13v1.9l-3.4-2.4zm9.9 12.2c6 0 10.9-4.8 10.9-10.9 0-6-4.9-10.9-10.9-10.9-6.1 0-11 4.9-11 10.9 0 6.1 4.9 10.9 11 10.9zm-5.5-10.7h11v6h-11v-6zm8-3.5 3.5 0.6c0.2 0.1 0.5-0.1 0.5-0.4 0.1-0.3-0.1-0.5-0.4-0.6l-3.4-0.6c-0.3-0.1-0.5 0.1-0.6 0.4 0 0.3 0.2 0.5 0.4 0.6zm-5.1-1.1-3.5 0.6c-0.2 0.1-0.4 0.3-0.4 0.6 0.1 0.3 0.4 0.5 0.6 0.4l3.5-0.6c0.2-0.1 0.4-0.3 0.4-0.6-0.1-0.3-0.4-0.4-0.6-0.4z" width="50" height="50"/>
</g>
<g transform="translate(400)">
<path d="m15.8 18.5-1.3-1.3-1.6 1.7-0.2 0.1-0.2 0.2-0.4-0.3-1.6-1.7-1.3 1.3-0.3 0.4-0.4 0.3-0.4-0.3-0.3-0.4-1.2-1.3-0.4-0.3 0.7-0.7 0.4 0.3 1.2 1.3 1.6-1.7 0.2-0.1 0.2-0.2 0.4 0.3 1.6 1.7 1.6-1.7 0.2-0.1 0.2-0.2 0.4 0.3 1.6 1.7 1.1-1.1 0.3-0.4 0.8 0.7-0.4 0.3-1.1 1.2-0.3 0.4-0.4 0.3-0.4-0.3-0.3-0.4zm-3.4 4.8c6.1 0 10.9-4.8 10.9-10.9 0-6-4.8-10.9-10.9-10.9-6 0-10.9 4.9-10.9 10.9 0 6.1 4.9 10.9 10.9 10.9zm0-1c-5.5 0-9.9-4.4-9.9-9.9s4.4-9.9 9.9-9.9 9.9 4.4 9.9 9.9-4.4 9.9-9.9 9.9zm4.4-12.7c-0.1 0-0.3 0.1-0.5 0.1-0.3 0.2-0.7 0.3-1 0.5-1.1 0.5-1.8 0.9-1.8 1.6s0.7 1.2 1.8 1.7c0.3 0.1 0.7 0.3 1 0.4 0.2 0.1 0.4 0.1 0.5 0.1l0.5 0.2 0.3-1-0.5-0.1c-0.1 0-0.3-0.1-0.5-0.2-0.3-0.1-0.6-0.2-0.9-0.3-0.7-0.4-1.2-0.7-1.2-0.8s0.5-0.4 1.2-0.7c0.3-0.2 0.6-0.3 0.9-0.4 0.2-0.1 0.4-0.1 0.5-0.2l0.5-0.1-0.3-1-0.5 0.2zm-9 1c0.1 0 0.3 0 0.5 0.1 0.3 0.1 0.6 0.2 0.9 0.4 0.7 0.3 1.2 0.6 1.2 0.7s-0.5 0.5-1.2 0.8c-0.3 0.1-0.6 0.2-0.9 0.4-0.2 0-0.4 0.1-0.5 0.1l-0.5 0.1 0.3 1 0.5-0.1c0.1-0.1 0.3-0.1 0.5-0.2 0.3-0.1 0.7-0.3 1-0.4 1.1-0.5 1.8-1 1.8-1.7 0-0.6-0.7-1.1-1.8-1.6-0.3-0.2-0.7-0.3-1-0.4-0.2-0.1-0.4-0.2-0.5-0.2l-0.5-0.1-0.3 0.9 0.5 0.2z" width="50" height="50"/>
</g>
<g transform="translate(425)">
<path d="m12.4 23.3c6.1 0 10.9-4.8 10.9-10.9 0-6-4.8-10.9-10.9-10.9-6 0-10.9 4.9-10.9 10.9 0 6.1 4.9 10.9 10.9 10.9zm0-1c-5.5 0-9.9-4.4-9.9-9.9s4.4-9.9 9.9-9.9 9.9 4.4 9.9 9.9-4.4 9.9-9.9 9.9zm4.2-7.4c-0.7 1.7-2.4 2.8-4.3 2.8-1.8 0-3.5-1.1-4.2-2.9l-0.9 0.4c0.8 2.1 2.8 3.5 5.1 3.5s4.4-1.4 5.2-3.5l-0.9-0.3zm-2.1-3.9c0.1-0.1 0.3-0.4 0.6-0.6 0.2-0.2 0.4-0.3 0.6-0.4s0.3-0.1 0.3-0.1 0.3 0.1 0.5 0.4c0.1 0 0.2 0.1 0.2 0.1 0.2 0.2 0.4 0.3 0.5 0.4l0.2 0.2c0.2 0.2 0.5 0.2 0.7 0s0.2-0.5 0-0.7l-0.2-0.2c-0.2-0.1-0.4-0.3-0.5-0.4l-0.2-0.2c-0.5-0.4-0.9-0.6-1.2-0.6-0.2 0-0.5 0.1-0.7 0.2-0.3 0.1-0.6 0.3-0.9 0.6-0.1 0.1-0.3 0.3-0.5 0.4-0.1 0.1-0.1 0.2-0.2 0.3-0.1 0.2-0.1 0.5 0.1 0.7 0.2 0.1 0.5 0.1 0.7-0.1zm-7 0c0.1-0.1 0.3-0.4 0.6-0.6 0.2-0.2 0.4-0.3 0.6-0.4s0.3-0.1 0.3-0.1 0.3 0.1 0.5 0.4c0.1 0 0.2 0.1 0.2 0.1 0.2 0.2 0.4 0.3 0.5 0.4l0.2 0.2c0.2 0.2 0.5 0.2 0.7 0s0.2-0.5 0-0.7l-0.2-0.2c-0.2-0.1-0.4-0.3-0.5-0.4l-0.2-0.2c-0.5-0.4-0.9-0.6-1.2-0.6-0.2 0-0.5 0.1-0.7 0.2-0.3 0.1-0.6 0.3-0.9 0.6-0.1 0.1-0.3 0.3-0.5 0.4-0.1 0.1-0.1 0.2-0.2 0.3-0.1 0.2-0.1 0.5 0.1 0.7 0.2 0.1 0.5 0.1 0.7-0.1z" width="50" height="50"/>
</g>
<g transform="translate(450)">
<path d="m12.4 23.3c6.1 0 10.9-4.8 10.9-10.9 0-6-4.8-10.9-10.9-10.9-6 0-10.9 4.9-10.9 10.9 0 6.1 4.9 10.9 10.9 10.9zm0-1c-5.5 0-9.9-4.4-9.9-9.9s4.4-9.9 9.9-9.9 9.9 4.4 9.9 9.9-4.4 9.9-9.9 9.9zm-5.1-11.3h3c0.3 0 0.5-0.2 0.5-0.5s-0.2-0.5-0.5-0.5h-3c-0.2 0-0.5 0.2-0.5 0.5s0.3 0.5 0.5 0.5zm7 0h3.2c0.2 0 0.5-0.2 0.5-0.5s-0.3-0.5-0.5-0.5h-3.2c-0.2 0-0.5 0.2-0.5 0.5s0.3 0.5 0.5 0.5zm-8.8 5h14v-1h-14v1z" width="50" height="50"/>
</g>
<g transform="translate(475)">
<path d="m12.4 23.3c6.1 0 10.9-4.8 10.9-10.9 0-6-4.8-10.9-10.9-10.9-6 0-10.9 4.9-10.9 10.9 0 6.1 4.9 10.9 10.9 10.9zm0-1c-5.5 0-9.9-4.4-9.9-9.9s4.4-9.9 9.9-9.9 9.9 4.4 9.9 9.9-4.4 9.9-9.9 9.9zm-2.9-9.8c1.1 0 2-1.1 2-2.5s-0.9-2.5-2-2.5-2 1.1-2 2.5 0.9 2.5 2 2.5zm0-1c-0.5 0-1-0.6-1-1.5s0.5-1.5 1-1.5 1 0.6 1 1.5-0.5 1.5-1 1.5zm6 1c1.1 0 2-1.1 2-2.5s-0.9-2.5-2-2.5-2 1.1-2 2.5 0.9 2.5 2 2.5zm0-1c-0.5 0-1-0.6-1-1.5s0.5-1.5 1-1.5 1 0.6 1 1.5-0.5 1.5-1 1.5z" width="50" height="50"/>
</g>
<g transform="translate(500)">
<path d="m12.4 23.3c6.1 0 10.9-4.8 10.9-10.9 0-6-4.8-10.9-10.9-10.9-6 0-10.9 4.9-10.9 10.9 0 6.1 4.9 10.9 10.9 10.9zm0-1c-5.5 0-9.9-4.4-9.9-9.9s4.4-9.9 9.9-9.9 9.9 4.4 9.9 9.9-4.4 9.9-9.9 9.9zm-3.9-7.8c1.9 0 3.5-1.6 3.5-3.5s-1.6-3.5-3.5-3.5-3.5 1.6-3.5 3.5 1.6 3.5 3.5 3.5zm0-1c-1.4 0-2.5-1.1-2.5-2.5s1.1-2.5 2.5-2.5 2.5 1.1 2.5 2.5-1.1 2.5-2.5 2.5zm8 1c1.9 0 3.5-1.6 3.5-3.5s-1.6-3.5-3.5-3.5-3.5 1.6-3.5 3.5 1.6 3.5 3.5 3.5zm0-1c-1.4 0-2.5-1.1-2.5-2.5s1.1-2.5 2.5-2.5 2.5 1.1 2.5 2.5-1.1 2.5-2.5 2.5zm0.6-3.8c-0.6 0-1-0.3-1-0.5s0.4-0.5 1-0.5 1 0.3 1 0.5-0.4 0.5-1 0.5zm-8 1c1.1 0 2-0.6 2-1.5s-0.9-1.5-2-1.5-2 0.6-2 1.5 0.9 1.5 2 1.5zm0-1c-0.6 0-1-0.3-1-0.5s0.4-0.5 1-0.5 1 0.3 1 0.5-0.4 0.5-1 0.5zm8 1c1.1 0 2-0.6 2-1.5s-0.9-1.5-2-1.5-2 0.6-2 1.5 0.9 1.5 2 1.5zm-3.1 7.3c0.3 0 0.5-0.2 0.5-0.5s-0.2-0.5-0.5-0.5h-3c-0.3 0-0.5 0.2-0.5 0.5s0.2 0.5 0.5 0.5h3z" width="50" height="50"/>
</g>
<g transform="translate(525)">
<path d="m11.5 15.6c-0.1 0.2-0.1 0.5 0.1 0.7l1 0.8-0.9 0.9c-0.3 0.1-0.3 0.5-0.1 0.7s0.5 0.2 0.7 0l1.4-1.2c0.2-0.1 0.3-0.5 0.1-0.7 0 0-0.1 0-0.1-0.1l-1.1-0.8 1.1-0.9c0.2-0.2 0.3-0.5 0.1-0.7 0-0.1-0.1-0.1-0.1-0.1v-0.1l-1.5-1.2c-0.2-0.1-0.5-0.1-0.7 0.1s-0.1 0.5 0.1 0.7l1 0.9-0.9 0.8c-0.1 0.1-0.2 0.1-0.2 0.2zm0.9 7.7c6.1 0 10.9-4.8 10.9-10.9 0-6-4.8-10.9-10.9-10.9-6 0-10.9 4.9-10.9 10.9 0 6.1 4.9 10.9 10.9 10.9zm0-1c-5.5 0-9.9-4.4-9.9-9.9s4.4-9.9 9.9-9.9 9.9 4.4 9.9 9.9-4.4 9.9-9.9 9.9zm2.1-12.3c0.1-0.1 0.3-0.4 0.6-0.6 0.2-0.2 0.4-0.3 0.6-0.4s0.3-0.1 0.3-0.1 0.3 0.1 0.5 0.4c0.1 0 0.2 0.1 0.2 0.1 0.2 0.2 0.4 0.3 0.5 0.4l0.2 0.2c0.2 0.2 0.5 0.2 0.7 0s0.2-0.5 0-0.7l-0.2-0.2c-0.2-0.1-0.4-0.3-0.5-0.4l-0.2-0.2c-0.5-0.4-0.9-0.6-1.2-0.6-0.2 0-0.5 0.1-0.7 0.2-0.3 0.1-0.6 0.3-0.9 0.6-0.1 0.1-0.3 0.3-0.5 0.4-0.1 0.1-0.1 0.2-0.2 0.3-0.1 0.2-0.1 0.5 0.1 0.7 0.2 0.1 0.5 0.1 0.7-0.1zm-7 0c0.1-0.1 0.3-0.4 0.6-0.6 0.2-0.2 0.4-0.3 0.6-0.4s0.3-0.1 0.3-0.1 0.3 0.1 0.5 0.4c0.1 0 0.2 0.1 0.2 0.1 0.2 0.2 0.4 0.3 0.5 0.4l0.2 0.2c0.2 0.2 0.5 0.2 0.7 0s0.2-0.5 0-0.7l-0.2-0.2c-0.2-0.1-0.4-0.3-0.5-0.4l-0.2-0.2c-0.5-0.4-0.9-0.6-1.2-0.6-0.2 0-0.5 0.1-0.7 0.2-0.3 0.1-0.6 0.3-0.9 0.6-0.1 0.1-0.3 0.3-0.5 0.4-0.1 0.1-0.1 0.2-0.2 0.3-0.1 0.2-0.1 0.5 0.1 0.7 0.2 0.1 0.5 0.1 0.7-0.1zm11 3.5c0-0.3 0.2-0.5 0.5-0.5s0.5 0.2 0.5 0.5h1c0-0.9-0.7-1.5-1.5-1.5s-1.5 0.6-1.5 1.5h1zm-13 0c0-0.3 0.2-0.5 0.5-0.5s0.5 0.2 0.5 0.5h1c0-0.9-0.7-1.5-1.5-1.5s-1.5 0.6-1.5 1.5h1z" width="50" height="50"/>
</g>
<g transform="translate(550)">
<path d="m8 10.6c0 0.9 0.8 1.6 1.8 1.6 0.9 0 1.7-0.7 1.7-1.6v-1h-0.5-5-0.5v1h0.5 2zm2.5 0c0 0.3-0.4 0.6-0.7 0.6-0.4 0-0.8-0.3-0.8-0.6h1.5zm5.5 0c0 0.9 0.8 1.6 1.8 1.6 0.9 0 1.7-0.7 1.7-1.6v-1h-0.5-5-0.5v1h0.5 2zm2.5 0c0 0.3-0.4 0.6-0.7 0.6-0.4 0-0.8-0.3-0.8-0.6h1.5zm-6.1 12.7c6.1 0 10.9-4.8 10.9-10.9 0-6-4.8-10.9-10.9-10.9-6 0-10.9 4.9-10.9 10.9 0 6.1 4.9 10.9 10.9 10.9zm0-1c-5.5 0-9.9-4.4-9.9-9.9s4.4-9.9 9.9-9.9 9.9 4.4 9.9 9.9-4.4 9.9-9.9 9.9zm-0.5-3.3c3 0.5 5.8-1.5 6.3-4.4l-1-0.2c-0.4 2.4-2.7 4-5.1 3.6l-0.2 1z" width="50" height="50"/>
</g>
<g transform="translate(575)">
<path d="m12.4 23.3c6.1 0 10.9-4.8 10.9-10.9 0-6-4.8-10.9-10.9-10.9-6 0-10.9 4.9-10.9 10.9 0 6.1 4.9 10.9 10.9 10.9zm0-1c-5.5 0-9.9-4.4-9.9-9.9s4.4-9.9 9.9-9.9 9.9 4.4 9.9 9.9-4.4 9.9-9.9 9.9zm4.4-12.3c-0.1 0.1-0.3 0.1-0.5 0.2-0.3 0.1-0.7 0.2-1 0.4-1.1 0.5-1.8 1-1.8 1.7 0 0.6 0.7 1.1 1.8 1.6 0.3 0.2 0.7 0.3 1 0.4 0.2 0.1 0.4 0.1 0.5 0.2l0.5 0.1 0.3-0.9-0.5-0.2c-0.1 0-0.3-0.1-0.5-0.1-0.3-0.1-0.6-0.3-0.9-0.4-0.7-0.3-1.2-0.7-1.2-0.7 0-0.1 0.5-0.5 1.2-0.8 0.3-0.1 0.6-0.3 0.9-0.4 0.2 0 0.4-0.1 0.5-0.1l0.5-0.2-0.3-0.9-0.5 0.1zm-9 1c0.1 0 0.3 0.1 0.5 0.1 0.3 0.1 0.6 0.3 0.9 0.4 0.7 0.3 1.2 0.7 1.2 0.8 0 0-0.5 0.4-1.2 0.7-0.3 0.1-0.6 0.3-0.9 0.4-0.2 0-0.4 0.1-0.5 0.1l-0.5 0.2 0.3 0.9 0.5-0.1c0.1-0.1 0.3-0.1 0.5-0.2 0.3-0.1 0.7-0.2 1-0.4 1.1-0.5 1.8-1 1.8-1.6 0-0.7-0.7-1.2-1.8-1.7-0.3-0.2-0.7-0.3-1-0.4-0.2-0.1-0.4-0.1-0.5-0.2l-0.5-0.1-0.3 0.9 0.5 0.2zm7.9 7.2c-0.5-1.4-1.8-2.3-3.4-2.3-1.5 0-2.8 0.9-3.3 2.3l0.9 0.4c0.4-1 1.4-1.7 2.4-1.7 1.1 0 2.1 0.7 2.5 1.7l0.9-0.4zm1.6-10 2.1 0.8 0.5 0.1 0.3-0.9-0.5-0.2-2-0.7-0.5-0.2-0.3 0.9 0.4 0.2zm-9.9-0.9-2.1 0.7-0.4 0.2 0.3 0.9 0.5-0.1 2-0.8 0.5-0.2-0.3-0.9-0.5 0.2z" width="50" height="50"/>
</g>
<g transform="translate(600)">
<path d="m5.2 20.6c2 1.8 4.5 2.7 7.2 2.7 6.1 0 10.9-4.8 10.9-10.9 0-6-4.8-10.9-10.9-10.9-6 0-10.9 4.9-10.9 10.9 0 1.3 0.2 2.6 0.7 3.8-0.4 0.8-0.7 1.5-0.7 2 0 1.4 1.2 2.6 2.7 2.6 0.3 0 0.7-0.1 1-0.2zm-2.3-5.5c-0.3-0.9-0.4-1.8-0.4-2.7 0-5.5 4.4-9.9 9.9-9.9s9.9 4.4 9.9 9.9-4.4 9.9-9.9 9.9c-2.3 0-4.6-0.8-6.3-2.3 0.4-0.4 0.7-1.1 0.7-1.8 0-0.6-0.2-1.3-0.7-2.1-0.1-0.3-0.3-0.5-0.4-0.7-0.2-0.5-0.5-0.9-0.8-1.2-0.1-0.3-0.2-0.4-0.3-0.5l-0.4-0.6-0.4 0.6c-0.1 0.1-0.2 0.2-0.4 0.5s-0.4 0.6-0.5 0.9zm4.6-2.1c0.1-0.1 0.3-0.4 0.6-0.6 0.2-0.2 0.4-0.3 0.6-0.4s0.3-0.1 0.3-0.1 0.3 0.1 0.5 0.4c0.1 0 0.2 0.1 0.2 0.1 0.2 0.2 0.4 0.3 0.5 0.4l0.2 0.2c0.2 0.2 0.5 0.2 0.7 0s0.2-0.5 0-0.7l-0.2-0.2c-0.2-0.1-0.4-0.3-0.5-0.4l-0.2-0.2c-0.5-0.4-0.9-0.6-1.2-0.6-0.2 0-0.5 0.1-0.7 0.2-0.3 0.1-0.6 0.3-0.9 0.6-0.1 0.1-0.3 0.3-0.5 0.4-0.1 0.1-0.1 0.2-0.2 0.3-0.1 0.2-0.1 0.5 0.1 0.7 0.2 0.1 0.5 0.1 0.7-0.1zm7 0c0.1-0.1 0.3-0.4 0.6-0.6 0.2-0.2 0.4-0.3 0.6-0.4s0.3-0.1 0.3-0.1 0.3 0.1 0.5 0.4c0.1 0 0.2 0.1 0.2 0.1 0.2 0.2 0.4 0.3 0.5 0.4l0.2 0.2c0.2 0.2 0.5 0.2 0.7 0s0.2-0.5 0-0.7l-0.2-0.2c-0.2-0.1-0.4-0.3-0.5-0.4l-0.2-0.2c-0.5-0.4-0.9-0.6-1.2-0.6-0.2 0-0.5 0.1-0.7 0.2-0.3 0.1-0.6 0.3-0.9 0.6-0.1 0.1-0.3 0.3-0.5 0.4-0.1 0.1-0.1 0.2-0.2 0.3-0.1 0.2-0.1 0.5 0.1 0.7 0.2 0.1 0.5 0.1 0.7-0.1zm-10.7 1.2c0 0.1 0.2 0.3 0.3 0.5 0.3 0.4 0.5 0.8 0.7 1.2 0.2 0.2 0.3 0.4 0.4 0.6 0.4 0.8 0.6 1.4 0.6 1.7 0 0.9-0.7 1.6-1.6 1.6s-1.7-0.7-1.7-1.6c0-0.3 0.3-0.9 0.7-1.7l0.3-0.6c0.3-0.4 0.5-0.8 0.8-1.2 0.1-0.2 0.2-0.4 0.3-0.5h-0.8zm11.9 4c-0.5-1.4-1.8-2.3-3.4-2.3-1.5 0-2.8 0.9-3.3 2.3l0.9 0.4c0.4-1 1.4-1.7 2.4-1.7 1.1 0 2.1 0.7 2.5 1.7l0.9-0.4zm1.6-8 2.1 0.8 0.5 0.1 0.3-0.9-0.5-0.2-2-0.7-0.5-0.2-0.3 0.9 0.4 0.2zm-9.9-0.9-2.1 0.7-0.4 0.2 0.3 0.9 0.5-0.1 2-0.8 0.5-0.2-0.3-0.9-0.5 0.2z" width="50" height="50"/>
</g>
<g transform="translate(625)">
<path d="m12.4 23.3c6.1 0 10.9-4.8 10.9-10.9 0-6-4.8-10.9-10.9-10.9-6 0-10.9 4.9-10.9 10.9 0 6.1 4.9 10.9 10.9 10.9zm0-1c-5.5 0-9.9-4.4-9.9-9.9s4.4-9.9 9.9-9.9 9.9 4.4 9.9 9.9-4.4 9.9-9.9 9.9zm-4.9-11.3c0.1-0.2 0.3-0.4 0.6-0.6 0.2-0.2 0.4-0.3 0.6-0.4 0.1-0.1 0.2-0.1 0.3-0.1 0 0 0.2 0.1 0.5 0.3l0.2 0.2c0.2 0.1 0.3 0.3 0.5 0.4l0.2 0.2c0.2 0.2 0.5 0.2 0.7 0s0.2-0.5 0-0.7c-0.1 0-0.1-0.1-0.2-0.2-0.2-0.2-0.4-0.3-0.6-0.5 0 0-0.1-0.1-0.2-0.1-0.5-0.4-0.8-0.6-1.1-0.6-0.2 0-0.5 0-0.7 0.2-0.3 0.1-0.6 0.3-0.9 0.5-0.2 0.2-0.3 0.4-0.5 0.5l-0.2 0.2c-0.2 0.2-0.1 0.6 0.1 0.7 0.2 0.2 0.5 0.2 0.7 0zm7 0c0.1-0.1 0.3-0.4 0.6-0.6 0.2-0.2 0.4-0.3 0.6-0.4s0.3-0.1 0.3-0.1 0.3 0.1 0.5 0.4c0.1 0 0.2 0.1 0.2 0.1 0.2 0.2 0.4 0.3 0.5 0.4l0.2 0.2c0.2 0.2 0.5 0.2 0.7 0s0.2-0.5 0-0.7l-0.2-0.2c-0.2-0.1-0.4-0.3-0.5-0.4l-0.2-0.2c-0.5-0.4-0.9-0.6-1.2-0.6-0.2 0-0.5 0.1-0.7 0.2-0.3 0.1-0.6 0.3-0.9 0.6-0.1 0.1-0.3 0.3-0.5 0.4-0.1 0.1-0.1 0.2-0.2 0.3-0.1 0.2-0.1 0.5 0.1 0.7 0.2 0.1 0.5 0.1 0.7-0.1zm-2 8.5c1.7 0 3-1.3 3-3s-1.3-3-3-3-3 1.3-3 3 1.3 3 3 3zm0-1c-1.1 0-2-0.9-2-2s0.9-2 2-2 2 0.9 2 2-0.9 2-2 2z" width="50" height="50"/>
</g>
<g transform="translate(650)">
<path d="m4.4 4.6l0.9 0.6c-1 0.8-1.8 1.8-2.4 2.9-0.4-1.2-0.6-2.4-0.6-3.6v-1.4l1.2 0.9 0.9 0.6zm-2.1 4.7c-0.5 1.3-0.8 2.7-0.8 4.1 0 6.1 4.9 10.9 10.9 10.9 6.1 0 10.9-4.8 10.9-10.9 0-1.4-0.2-2.7-0.7-3.9 0.8-1.6 1.2-3.3 1.2-5 0-0.8-0.1-1.6-0.3-2.3l-0.7-0.7c-1.2 1.2-2.6 2.2-4.1 3-0.5-0.4-1-0.7-1.5-0.9-1.5-0.7-3.1-1.1-4.8-1.1-2.3 0-4.5 0.7-6.2 2-1.5-0.7-2.9-1.7-4-2.9l-0.7 0.7c-0.2 0.7-0.2 1.5-0.2 2.2 0 1.7 0.3 3.3 1 4.8zm19.7-1.1c-0.6-1.1-1.4-2.2-2.4-3 1.1-0.6 2.1-1.4 3-2.2 0.1 0.5 0.2 1 0.2 1.5 0 1.3-0.3 2.6-0.8 3.7zm-13.6 4.3-1.3-1.3-0.4-0.3l0.7-0.7 0.4 0.3 2.9 2.9 0.3 0.3 0.1 0.1c0.2 0.2 0.2 0.5 0 0.7s-0.5 0.2-0.7 0l-0.1-0.1h-0.1c-0.1-0.2-0.3-0.3-0.5-0.5 0 0-0.1-0.1-0.2-0.1-0.2-0.2-0.5-0.4-0.5-0.4s-0.1 0-0.3 0.1-0.4 0.2-0.6 0.4c-0.3 0.2-0.5 0.5-0.6 0.6-0.2 0.2-0.5 0.2-0.7 0.1-0.2-0.2-0.2-0.5-0.1-0.7 0.1-0.1 0.1-0.2 0.2-0.3 0.2-0.1 0.4-0.3 0.5-0.4 0.3-0.3 0.6-0.5 0.9-0.6 0 0 0.1 0 0.1-0.1zm6.1 0.6 2.6-2.6 0.4-0.3 0.7 0.7-0.4 0.4-1.3 1.2c0.2 0.1 0.4 0.3 0.7 0.5l0.2 0.2c0.1 0.1 0.3 0.3 0.5 0.4l0.2 0.2c0.2 0.2 0.2 0.5 0 0.7s-0.5 0.2-0.7 0c0 0-0.1-0.1-0.2-0.1-0.1-0.2-0.3-0.3-0.5-0.5 0 0-0.1-0.1-0.2-0.1-0.2-0.2-0.5-0.4-0.5-0.4s-0.1 0-0.3 0.1c-0.1 0.1-0.3 0.2-0.5 0.3l-0.4 0.4-0.4 0.4c-0.1 0.1-0.4 0.1-0.6 0-0.2-0.2-0.2-0.5-0.1-0.7 0.1-0.1 0.1-0.2 0.2-0.3 0.2-0.1 0.4-0.3 0.5-0.4l0.1-0.1zm-2.1 10.2c-5.5 0-9.9-4.4-9.9-9.9s4.4-9.9 9.9-9.9c1.5 0 3 0.3 4.3 1 3.4 1.6 5.6 5.1 5.6 8.9 0 5.5-4.4 9.9-9.9 9.9zm4.2-6.4c-0.7 1.7-2.4 2.8-4.3 2.8-1.8 0-3.5-1.1-4.2-2.9l-0.9 0.4c0.8 2.1 2.8 3.5 5.1 3.5s4.4-1.4 5.2-3.5l-0.9-0.3z" width="50" height="50"/>
</g>
<g transform="translate(675)">
<path d="m4.4 4.6l0.9 0.6c-1 0.8-1.8 1.8-2.4 2.9-0.4-1.2-0.6-2.4-0.6-3.6v-1.4l1.2 0.9 0.9 0.6zm-2.1 4.7c-0.5 1.3-0.8 2.7-0.8 4.1 0 6.1 4.9 10.9 10.9 10.9 6.1 0 10.9-4.8 10.9-10.9 0-1.4-0.2-2.7-0.7-3.9 0.8-1.6 1.2-3.3 1.2-5 0-0.8-0.1-1.6-0.3-2.3l-0.7-0.7c-1.2 1.2-2.6 2.2-4.1 3-0.5-0.4-1-0.7-1.5-0.9-1.5-0.7-3.1-1.1-4.8-1.1-2.3 0-4.5 0.7-6.2 2-1.5-0.7-2.9-1.7-4-2.9l-0.7 0.7c-0.2 0.7-0.2 1.5-0.2 2.2 0 1.7 0.3 3.3 1 4.8zm19.7-1.1c-0.6-1.1-1.4-2.2-2.4-3 1.1-0.6 2.1-1.4 3-2.2 0.1 0.5 0.2 1 0.2 1.5 0 1.3-0.3 2.6-0.8 3.7zm-13.6 4.3-1.3-1.3-0.4-0.3l0.7-0.7 0.4 0.3 2.9 2.9 0.3 0.3 0.1 0.1c0.2 0.2 0.2 0.5 0 0.7s-0.5 0.2-0.7 0l-0.1-0.1h-0.1c-0.1-0.2-0.3-0.3-0.5-0.5 0 0-0.1-0.1-0.2-0.1-0.2-0.2-0.5-0.4-0.5-0.4s-0.1 0-0.3 0.1-0.4 0.2-0.6 0.4c-0.3 0.2-0.5 0.5-0.6 0.6-0.2 0.2-0.5 0.2-0.7 0.1-0.2-0.2-0.2-0.5-0.1-0.7 0.1-0.1 0.1-0.2 0.2-0.3 0.2-0.1 0.4-0.3 0.5-0.4 0.3-0.3 0.6-0.5 0.9-0.6 0 0 0.1 0 0.1-0.1zm6.1 0.6 2.6-2.6 0.4-0.3 0.7 0.7-0.4 0.4-1.3 1.2c0.2 0.1 0.4 0.3 0.7 0.5l0.2 0.2c0.1 0.1 0.3 0.3 0.5 0.4l0.2 0.2c0.2 0.2 0.2 0.5 0 0.7s-0.5 0.2-0.7 0c0 0-0.1-0.1-0.2-0.1-0.1-0.2-0.3-0.3-0.5-0.5 0 0-0.1-0.1-0.2-0.1-0.2-0.2-0.5-0.4-0.5-0.4s-0.1 0-0.3 0.1c-0.1 0.1-0.3 0.2-0.5 0.3l-0.4 0.4-0.4 0.4c-0.1 0.1-0.4 0.1-0.6 0-0.2-0.2-0.2-0.5-0.1-0.7 0.1-0.1 0.1-0.2 0.2-0.3 0.2-0.1 0.4-0.3 0.5-0.4l0.1-0.1zm-2.1 10.2c-5.5 0-9.9-4.4-9.9-9.9s4.4-9.9 9.9-9.9c1.5 0 3 0.3 4.3 1 3.4 1.6 5.6 5.1 5.6 8.9 0 5.5-4.4 9.9-9.9 9.9zm2.9-4.1c-0.5-1.2-1.7-2-2.9-2-1.3 0-2.5 0.8-3 2l1 0.4c0.3-0.8 1.1-1.4 2-1.4 0.8 0 1.6 0.6 1.9 1.4l1-0.4z" width="50" height="50"/>
</g>
<g transform="translate(700)">
<path d="m12.4 23.3c6.1 0 10.9-4.8 10.9-10.9 0-6-4.8-10.9-10.9-10.9-6 0-10.9 4.9-10.9 10.9 0 6.1 4.9 10.9 10.9 10.9zm0-1c-5.5 0-9.9-4.4-9.9-9.9s4.4-9.9 9.9-9.9 9.9 4.4 9.9 9.9-4.4 9.9-9.9 9.9zm-4.3-10.3c0-0.6 0.4-1 1-1 0.5 0 1 0.4 1 1h1c0-1.1-0.9-2-2-2s-2 0.9-2 2h1zm6.7 0c0-0.6 0.5-1 1-1 0.6 0 1 0.4 1 1h1c0-1.1-0.9-2-2-2s-2 0.9-2 2h1zm2.5-2.8 2.1 0.8 0.5 0.1 0.3-0.9-0.5-0.2-2-0.7-0.5-0.2-0.3 0.9 0.4 0.2zm-9.9-0.9-2.1 0.7-0.4 0.2 0.3 0.9 0.5-0.1 2-0.8 0.5-0.2-0.3-0.9-0.5 0.2zm8.8 9.2c-0.6-1.5-2-2.5-3.7-2.5-1.6 0-3.1 1-3.7 2.5l1 0.3c0.4-1.1 1.5-1.8 2.7-1.8 1.3 0 2.3 0.7 2.8 1.8l0.9-0.3z" width="50" height="50"/>
</g>
<g transform="translate(725)">
<path d="m12.4 23.3c6.1 0 10.9-4.8 10.9-10.9 0-6-4.8-10.9-10.9-10.9-6 0-10.9 4.9-10.9 10.9 0 6.1 4.9 10.9 10.9 10.9zm0-1c-5.5 0-9.9-4.4-9.9-9.9s4.4-9.9 9.9-9.9 9.9 4.4 9.9 9.9-4.4 9.9-9.9 9.9zm-1.4-3.8c0.2-0.1 0.4-0.3 0.6-0.5s0.4-0.4 0.6-0.5h0.3s0.2 0.1 0.5 0.3c0 0.1 0.1 0.1 0.2 0.2s0.3 0.2 0.4 0.4c0.1 0 0.2 0.1 0.2 0.1 0.2 0.2 0.5 0.2 0.7 0s0.2-0.5 0-0.6c0-0.1-0.1-0.2-0.2-0.2-0.2-0.2-0.4-0.3-0.5-0.5-0.1 0-0.2-0.1-0.2-0.1-0.5-0.4-0.8-0.6-1.1-0.6-0.2 0-0.5 0.1-0.7 0.2-0.3 0.1-0.5 0.3-0.8 0.5l-0.5 0.5-0.2 0.2c-0.2 0.2-0.1 0.5 0.1 0.7 0.2 0.1 0.5 0.1 0.6-0.1zm-1.6-6.5-3.4 1c-0.2 0.1-0.4 0.3-0.3 0.6s0.3 0.4 0.6 0.3l3.3-1c0.3 0 0.5-0.3 0.4-0.6s-0.4-0.4-0.6-0.3zm6 1 3.4 1c0.2 0.1 0.5-0.1 0.6-0.4 0.1-0.2-0.1-0.5-0.3-0.6l-3.5-1c-0.2-0.1-0.5 0.1-0.6 0.4-0.1 0.2 0.1 0.5 0.4 0.6z" width="50" height="50"/>
</g>
<g transform="translate(750)">
<path d="m14 21h-1v0.5 1 0.5h-1v-0.5-1-0.5h-1v0.5 1 0.5h-1v-0.5-1-0.5h-1v0.5 1 0.5h-1v-0.5-1-0.5h-0.5-0.5v-0.5-1.6c-2.9-1.9-4.5-4.9-4.5-8.4 0-5.5 4.5-10 10-10s10 4.5 10 10c0 3.5-1.6 6.5-4.5 8.4v1.6 0.5h-0.5-0.5v0.5 1 0.5h-1v-0.5-1-0.5h-1v0.5 1 0.5h-1v-0.5-1-0.5zm-1.5-3.7-0.7 0.5-0.5 0.2-0.5-0.8 0.4-0.3 0.9-0.5 0.4-0.3 0.5 0.3 0.8 0.5 0.4 0.3-0.6 0.8-0.4-0.2-0.7-0.5zm-0.2-15.8c-4.9 0.1-8.8 4.1-8.8 9 0 3.1 1.6 6 4.2 7.6l0.3 0.2v0.3 1.4h9v-1.4-0.3l0.2-0.1c2.7-1.7 4.3-4.5 4.3-7.7 0-4.9-3.9-8.9-8.8-9h-0.2-0.2zm-3.9 14.7c1.7 0 3.1-1.4 3.1-3.1s-1.4-3-3.1-3-3 1.3-3 3 1.3 3.1 3 3.1zm0-1c-1.1 0-2-0.9-2-2.1 0-1.1 0.9-2 2-2 1.2 0 2.1 0.9 2.1 2 0 1.2-0.9 2.1-2.1 2.1zm8.2 0.9c1.7 0 3-1.4 3-3 0-1.7-1.3-3-3-3-1.6 0-3 1.3-3 3 0 1.6 1.4 3 3 3zm0-1c-1.1 0-2-0.9-2-2s0.9-2 2-2 2 0.9 2 2-0.9 2-2 2zm-8.1 8.9h8 0.5v-1h-0.5-8-0.5v1h0.5z" width="50" height="50"/>
</g>
<g transform="translate(775)">
<path d="m12.4 23.3c6.1 0 10.9-4.8 10.9-10.9 0-6-4.8-10.9-10.9-10.9-6 0-10.9 4.9-10.9 10.9 0 6.1 4.9 10.9 10.9 10.9zm0-1c-5.5 0-9.9-4.4-9.9-9.9s4.4-9.9 9.9-9.9 9.9 4.4 9.9 9.9-4.4 9.9-9.9 9.9zm-6.6-6.8c0 1.3 1.1 2.5 2.5 2.5h8.1c1.4 0 2.5-1.2 2.5-2.5 0-1.4-1.1-2.5-2.5-2.5h-8.1c-1.4 0-2.5 1.1-2.5 2.5zm1 0c0-0.9 0.6-1.5 1.5-1.5h8.1c0.8 0 1.5 0.6 1.5 1.5 0 0.8-0.7 1.5-1.5 1.5h-8.1c-0.9 0-1.5-0.7-1.5-1.5zm1.3-4.5c0-0.6 0.4-1 1-1 0.5 0 1 0.4 1 1h1c0-1.1-0.9-2-2-2s-2 0.9-2 2h1zm6.7 0c0-0.6 0.5-1 1-1 0.6 0 1 0.4 1 1h1c0-1.1-0.9-2-2-2s-2 0.9-2 2h1z" width="50" height="50"/>
</g>
<g transform="translate(800)">
<path d="m12.4 23.3c6.1 0 10.9-4.8 10.9-10.9 0-6-4.8-10.9-10.9-10.9-6 0-10.9 4.9-10.9 10.9 0 6.1 4.9 10.9 10.9 10.9zm0-1c-5.5 0-9.9-4.4-9.9-9.9s4.4-9.9 9.9-9.9 9.9 4.4 9.9 9.9-4.4 9.9-9.9 9.9zm2.1-8.8c0.1-0.1 0.3-0.4 0.6-0.6 0.2-0.2 0.4-0.3 0.6-0.4s0.3-0.1 0.3-0.1 0.3 0.2 0.5 0.4c0.1 0 0.2 0.1 0.2 0.1 0.2 0.2 0.4 0.3 0.5 0.5 0.1 0 0.2 0.1 0.2 0.1 0.2 0.2 0.5 0.2 0.7 0s0.2-0.5 0-0.7l-0.2-0.2c-0.2-0.1-0.4-0.3-0.5-0.4l-0.2-0.2c-0.5-0.4-0.9-0.6-1.2-0.6-0.2 0-0.5 0.1-0.7 0.2-0.3 0.1-0.6 0.3-0.9 0.6-0.1 0.1-0.3 0.3-0.5 0.4-0.1 0.1-0.1 0.2-0.2 0.3-0.1 0.2-0.1 0.5 0.1 0.7 0.2 0.1 0.5 0.1 0.7-0.1zm-7 0c0.1-0.1 0.3-0.4 0.6-0.6 0.2-0.2 0.4-0.3 0.6-0.4s0.3-0.1 0.3-0.1 0.3 0.2 0.5 0.4c0.1 0 0.2 0.1 0.2 0.1 0.2 0.2 0.4 0.3 0.5 0.5 0.1 0 0.2 0.1 0.2 0.1 0.2 0.2 0.5 0.2 0.7 0s0.2-0.5 0-0.7l-0.2-0.2c-0.2-0.1-0.4-0.3-0.5-0.4l-0.2-0.2c-0.5-0.4-0.9-0.6-1.2-0.6-0.2 0-0.5 0.1-0.7 0.2-0.3 0.1-0.6 0.3-0.9 0.6-0.1 0.1-0.3 0.3-0.5 0.4-0.1 0.1-0.1 0.2-0.2 0.3-0.1 0.2-0.1 0.5 0.1 0.7 0.2 0.1 0.5 0.1 0.7-0.1zm9.8-5-3.3 1.4-0.4 0.2 0.4 0.9 0.4-0.2 3.3-1.3 0.5-0.2-0.4-1-0.5 0.2zm-10 1 3.2 1.3 0.4 0.2 0.4-0.9l-0.4-0.2-3.2-1.4-0.5-0.2-0.4 1 0.5 0.2zm8.4 9.3c-0.5-1.4-1.8-2.3-3.4-2.3-1.5 0-2.8 0.9-3.3 2.3l0.9 0.4c0.4-1 1.4-1.7 2.4-1.7 1.1 0 2.1 0.7 2.5 1.7l0.9-0.4z" width="50" height="50"/>
</g>
<g transform="translate(825)">
<path d="m12.4 23.3c6.1 0 10.9-4.8 10.9-10.9 0-6-4.8-10.9-10.9-10.9-6 0-10.9 4.9-10.9 10.9 0 6.1 4.9 10.9 10.9 10.9zm0-1c-5.5 0-9.9-4.4-9.9-9.9s4.4-9.9 9.9-9.9 9.9 4.4 9.9 9.9-4.4 9.9-9.9 9.9zm4.4-7c1.9 0 3.5-1.6 3.5-3.5s-1.6-3.5-3.5-3.5-3.5 1.6-3.5 3.5 1.6 3.5 3.5 3.5zm0-1c-1.4 0-2.5-1.1-2.5-2.5s1.1-2.5 2.5-2.5 2.5 1.1 2.5 2.5-1.1 2.5-2.5 2.5zm0-1.2c0.7 0 1.4-0.6 1.4-1.3s-0.7-1.4-1.4-1.4-1.3 0.7-1.3 1.4 0.6 1.3 1.3 1.3zm0-1c-0.2 0-0.3-0.1-0.3-0.3s0.1-0.4 0.3-0.4 0.4 0.2 0.4 0.4-0.2 0.3-0.4 0.3zm-8.7 3.2c1.9 0 3.5-1.6 3.5-3.5s-1.6-3.5-3.5-3.5-3.5 1.6-3.5 3.5 1.6 3.5 3.5 3.5zm0-1c-1.4 0-2.5-1.1-2.5-2.5s1.1-2.5 2.5-2.5 2.5 1.1 2.5 2.5-1.1 2.5-2.5 2.5zm0.1-1.2c0.7 0 1.3-0.6 1.3-1.3s-0.6-1.4-1.3-1.4c-0.8 0-1.4 0.7-1.4 1.4s0.6 1.3 1.4 1.3zm0-1c-0.2 0-0.4-0.1-0.4-0.3s0.2-0.4 0.4-0.4c0.1 0 0.3 0.2 0.3 0.4s-0.2 0.3-0.3 0.3zm5.8 6.4c0.3 0 0.5-0.2 0.5-0.5s-0.2-0.5-0.5-0.5h-3c-0.3 0-0.5 0.2-0.5 0.5s0.2 0.5 0.5 0.5h3z" width="50" height="50"/>
</g>
<g transform="translate(850)">
<path d="m12.4 23.3c6.1 0 10.9-4.8 10.9-10.9 0-6-4.8-10.9-10.9-10.9-6 0-10.9 4.9-10.9 10.9 0 6.1 4.9 10.9 10.9 10.9zm0-1c-5.5 0-9.9-4.4-9.9-9.9s4.4-9.9 9.9-9.9 9.9 4.4 9.9 9.9-4.4 9.9-9.9 9.9zm-3.5-9.6-0.4-0.6-0.4 0.6c-0.1 0.1-0.2 0.3-0.4 0.5-0.3 0.4-0.5 0.8-0.8 1.2-0.1 0.2-0.2 0.5-0.4 0.7-0.4 0.9-0.7 1.6-0.7 2.1 0 1.5 1.2 2.7 2.7 2.7 1.4 0 2.6-1.2 2.6-2.7 0-0.5-0.3-1.2-0.7-2.1-0.2-0.2-0.3-0.5-0.4-0.7-0.3-0.4-0.5-0.8-0.8-1.2-0.1-0.2-0.3-0.4-0.3-0.5zm-0.8 0.6c0 0.1 0.1 0.2 0.3 0.5s0.5 0.7 0.7 1.1c0.1 0.2 0.3 0.5 0.4 0.7 0.4 0.7 0.6 1.3 0.6 1.6 0 0.9-0.7 1.7-1.6 1.7-1 0-1.7-0.8-1.7-1.7 0-0.3 0.2-0.9 0.6-1.6 0.1-0.2 0.3-0.5 0.4-0.7 0.2-0.4 0.5-0.8 0.7-1.1s0.3-0.4 0.4-0.5h-0.8zm7.6 4.9c-0.5-1.4-1.8-2.3-3.4-2.3-0.7 0-1.4 0.2-2 0.6l0.6 0.8c0.4-0.2 0.9-0.4 1.4-0.4 1.1 0 2.1 0.7 2.5 1.7l0.9-0.4zm2.6-9 2.1 0.8 0.5 0.1l0.3-0.9-0.5-0.2-2-0.7-0.5-0.2-0.3 0.9 0.4 0.2zm-11.9-0.9-2.1 0.7-0.4 0.2 0.3 0.9 0.5-0.1 2-0.8 0.5-0.2-0.3-0.9-0.5 0.2zm0.4 4.3c0-0.9 0.8-1.7 1.7-1.7s1.7 0.8 1.7 1.7h1c0-1.4-1.2-2.7-2.7-2.7s-2.7 1.3-2.7 2.7h1zm8 0c0-0.9 0.8-1.7 1.7-1.7s1.7 0.8 1.7 1.7h1c0-1.4-1.2-2.7-2.7-2.7s-2.7 1.3-2.7 2.7h1z" width="50" height="50"/>
</g>
<g transform="translate(875)">
<path d="m9.7 16h-3.4v-1h12.2v1h-3.2v1.5c0 1.4-1.1 2.5-2.5 2.5h-0.6c-1.4 0-2.5-1.1-2.5-2.5v-1.5zm2.7-14.5c-6 0-10.9 4.9-10.9 10.9 0 6.1 4.9 10.9 10.9 10.9 6.1 0 10.9-4.8 10.9-10.9 0-6-4.8-10.9-10.9-10.9zm0 1c5.5 0 9.9 4.4 9.9 9.9s-4.4 9.9-9.9 9.9-9.9-4.4-9.9-9.9 4.4-9.9 9.9-9.9zm-5.5 8.8c0.1-0.1 0.3-0.4 0.6-0.6 0.2-0.2 0.4-0.3 0.6-0.4 0.1-0.1 0.2-0.1 0.3-0.1 0 0 0.2 0.2 0.5 0.4 0.1 0 0.1 0.1 0.2 0.1l0.5 0.5c0.1 0 0.2 0.1 0.2 0.1 0.2 0.2 0.5 0.2 0.7 0s0.2-0.5 0-0.7l-0.2-0.2c-0.2-0.1-0.4-0.3-0.6-0.4 0-0.1-0.1-0.2-0.2-0.2-0.5-0.4-0.8-0.6-1.1-0.6-0.2 0-0.5 0.1-0.7 0.2-0.3 0.1-0.6 0.3-0.9 0.6-0.2 0.1-0.3 0.3-0.5 0.4-0.1 0.1-0.1 0.2-0.2 0.3-0.2 0.2-0.1 0.5 0.1 0.7 0.2 0.1 0.5 0.1 0.7-0.1zm2.8 4.7 1-1v2.5c0 0.8 0.7 1.5 1.5 1.5h0.6c0.8 0 1.5-0.7 1.5-1.5v-2.5l1 1h-5.6zm6.1-2.2c1.9 0 3.5-1.6 3.5-3.5s-1.6-3.5-3.5-3.5-3.5 1.6-3.5 3.5 1.6 3.5 3.5 3.5zm0-1c-1.4 0-2.5-1.1-2.5-2.5s1.1-2.5 2.5-2.5 2.5 1.1 2.5 2.5-1.1 2.5-2.5 2.5zm0-1.2c0.7 0 1.4-0.6 1.4-1.3s-0.7-1.4-1.4-1.4-1.3 0.7-1.3 1.4 0.6 1.3 1.3 1.3zm0-1c-0.2 0-0.3-0.1-0.3-0.3s0.1-0.4 0.3-0.4 0.4 0.2 0.4 0.4-0.2 0.3-0.4 0.3z" width="50" height="50"/>
</g>
<g transform="translate(900)">
<path d="m9.7 16h-3.4v-1h12.2v1h-3.2v1.5c0 1.4-1.1 2.5-2.5 2.5h-0.6c-1.4 0-2.5-1.1-2.5-2.5v-1.5zm2.7 7.3c6.1 0 10.9-4.8 10.9-10.9 0-6-4.8-10.9-10.9-10.9-6 0-10.9 4.9-10.9 10.9 0 6.1 4.9 10.9 10.9 10.9zm0-1c-5.5 0-9.9-4.4-9.9-9.9s4.4-9.9 9.9-9.9 9.9 4.4 9.9 9.9-4.4 9.9-9.9 9.9zm-2.7-6.3l1-1v2.5c0 0.8 0.7 1.5 1.5 1.5h0.6c0.8 0 1.5-0.7 1.5-1.5v-2.5l1 1h-5.6zm7.1-7.5c-0.1 0.1-0.3 0.1-0.5 0.2-0.3 0.1-0.7 0.2-1 0.4-1.1 0.5-1.8 1-1.8 1.7 0 0.6 0.7 1.1 1.8 1.6 0.3 0.2 0.7 0.3 1 0.4 0.2 0.1 0.4 0.1 0.5 0.2l0.5 0.1 0.3-0.9-0.5-0.2c-0.1 0-0.3-0.1-0.5-0.1-0.3-0.1-0.6-0.3-0.9-0.4-0.7-0.3-1.2-0.7-1.2-0.7 0-0.1 0.5-0.5 1.2-0.8 0.3-0.1 0.6-0.3 0.9-0.4 0.2 0 0.4-0.1 0.5-0.1l0.5-0.2-0.3-0.9-0.5 0.1zm-9 1c0.1 0 0.3 0.1 0.5 0.1 0.3 0.1 0.6 0.3 0.9 0.4 0.7 0.3 1.2 0.7 1.2 0.8 0 0-0.5 0.4-1.2 0.7-0.3 0.1-0.6 0.3-0.9 0.4-0.2 0-0.4 0.1-0.5 0.1l-0.5 0.2 0.3 0.9 0.5-0.1c0.1-0.1 0.3-0.1 0.5-0.2 0.3-0.1 0.7-0.2 1-0.4 1.1-0.5 1.8-1 1.8-1.6 0-0.7-0.7-1.2-1.8-1.7-0.3-0.2-0.7-0.3-1-0.4-0.2-0.1-0.4-0.1-0.5-0.2l-0.5-0.1-0.3 0.9 0.5 0.2z" width="50" height="50"/>
</g>
<g transform="translate(925)">
<path d="m8 10.6c0 0.9 0.8 1.6 1.8 1.6 0.9 0 1.7-0.7 1.7-1.6v-1h-0.5-5-0.5v1h0.5 2zm2.5 0c0 0.3-0.4 0.6-0.7 0.6-0.4 0-0.8-0.3-0.8-0.6h1.5zm5.5 0c0 0.9 0.8 1.6 1.8 1.6 0.9 0 1.7-0.7 1.7-1.6v-1h-0.5-5-0.5v1h0.5 2zm2.5 0c0 0.3-0.4 0.6-0.7 0.6-0.4 0-0.8-0.3-0.8-0.6h1.5zm-6.1 12.7c6.1 0 10.9-4.8 10.9-10.9 0-6-4.8-10.9-10.9-10.9-6 0-10.9 4.9-10.9 10.9 0 6.1 4.9 10.9 10.9 10.9zm0-1c-5.5 0-9.9-4.4-9.9-9.9s4.4-9.9 9.9-9.9 9.9 4.4 9.9 9.9-4.4 9.9-9.9 9.9zm3.6-3.8c-0.6-1.5-2-2.5-3.6-2.5-1.7 0-3.1 1-3.7 2.5l0.9 0.3c0.4-1.1 1.5-1.8 2.8-1.8 1.2 0 2.3 0.7 2.7 1.8l0.9-0.3z" width="50" height="50"/>
</g>
<g transform="translate(950)">
<path d="m2.6 7.5c-0.7 1.5-1.1 3.2-1.1 4.9 0 6.1 4.9 10.9 10.9 10.9 6.1 0 10.9-4.8 10.9-10.9 0-6-4.8-10.9-10.9-10.9-2 0-4 0.6-5.7 1.6-0.2-0.3-0.4-0.6-0.5-0.8-0.2-0.3-0.3-0.5-0.4-0.6l-0.4-0.6-0.4 0.6c-0.1 0.1-0.2 0.3-0.4 0.6-0.3 0.4-0.6 0.8-0.8 1.3-0.2 0.2-0.3 0.5-0.5 0.7-0.5 1-0.8 1.8-0.8 2.3 0 0.3 0.1 0.7 0.1 0.9zm4.6-3.5c1.6-1 3.4-1.5 5.2-1.5 5.5 0 9.9 4.4 9.9 9.9s-4.4 9.9-9.9 9.9-9.9-4.4-9.9-9.9c0-1.3 0.3-2.6 0.8-3.8 0.5 0.5 1.2 0.9 2.1 0.9 1.6 0 2.8-1.3 2.8-2.9 0-0.5-0.2-1.3-0.8-2.3 0-0.1-0.1-0.2-0.2-0.3zm-2.2-1.7c0 0.1 0.2 0.3 0.3 0.5 0.3 0.4 0.6 0.9 0.8 1.3 0.2 0.2 0.3 0.5 0.5 0.7 0.4 0.8 0.6 1.5 0.6 1.8 0 1.1-0.8 1.9-1.8 1.9-1.1 0-1.9-0.8-1.9-1.9 0-0.3 0.3-1 0.7-1.8 0.1-0.2 0.3-0.5 0.4-0.7 0.3-0.4 0.5-0.9 0.8-1.3 0.2-0.2 0.3-0.4 0.4-0.5h-0.8zm6.5 11c-0.5-1.2-1.6-2-2.9-2s-2.4 0.8-2.9 2l0.9 0.3c0.4-0.8 1.1-1.3 2-1.3s1.6 0.5 1.9 1.3l1-0.3zm7.8 0c-0.5-1.2-1.6-2-2.9-2s-2.4 0.8-2.9 2l1 0.3c0.3-0.8 1-1.3 1.9-1.3s1.6 0.5 2 1.3l0.9-0.3zm-8.3 5.2c0.2-0.1 0.4-0.3 0.6-0.5s0.4-0.4 0.6-0.5h0.3s0.2 0.1 0.5 0.3c0 0.1 0.1 0.1 0.2 0.2s0.3 0.2 0.4 0.4c0.1 0 0.2 0.1 0.2 0.1 0.2 0.2 0.5 0.2 0.7 0s0.2-0.5 0-0.6c0-0.1-0.1-0.2-0.2-0.2-0.2-0.2-0.4-0.3-0.5-0.5-0.1 0-0.2-0.1-0.2-0.1-0.5-0.4-0.8-0.6-1.1-0.6-0.2 0-0.5 0.1-0.7 0.2-0.3 0.1-0.5 0.3-0.8 0.5l-0.5 0.5-0.2 0.2c-0.2 0.2-0.1 0.5 0.1 0.7 0.2 0.1 0.5 0.1 0.6-0.1z" width="50" height="50"/>
</g>
<g transform="translate(975)">
<path d="m12.4 23.3c6.1 0 10.9-4.8 10.9-10.9 0-6-4.8-10.9-10.9-10.9-6 0-10.9 4.9-10.9 10.9 0 6.1 4.9 10.9 10.9 10.9zm0-1c-5.5 0-9.9-4.4-9.9-9.9s4.4-9.9 9.9-9.9 9.9 4.4 9.9 9.9-4.4 9.9-9.9 9.9zm4.9-12.1 2.1 0.8 0.5 0.1 0.3-0.9-0.5-0.2-2-0.7-0.5-0.2-0.3 0.9 0.4 0.2zm-9.9-0.9-2.1 0.7-0.4 0.2 0.3 0.9 0.5-0.1 2-0.8 0.5-0.2-0.3-0.9-0.5 0.2zm6.6 9.7c0.3 0 0.5-0.2 0.5-0.5s-0.2-0.5-0.5-0.5h-3c-0.3 0-0.5 0.2-0.5 0.5s0.2 0.5 0.5 0.5h3zm-3.5-6.4c-0.3 0.8-1 1.3-1.9 1.3s-1.6-0.5-2-1.3l-0.9 0.4c0.5 1.2 1.6 1.9 2.9 1.9s2.4-0.7 2.9-1.9l-1-0.4zm7.9 0c-0.4 0.8-1.1 1.3-2 1.3s-1.6-0.5-1.9-1.3l-1 0.4c0.5 1.2 1.6 1.9 2.9 1.9s2.4-0.7 2.9-1.9l-0.9-0.4z" width="50" height="50"/>
</g>
<g transform="translate(1e3)">
<path d="m12.4 23.3c6.1 0 10.9-4.8 10.9-10.9 0-6-4.8-10.9-10.9-10.9-6 0-10.9 4.9-10.9 10.9 0 6.1 4.9 10.9 10.9 10.9zm0-1c-5.5 0-9.9-4.4-9.9-9.9s4.4-9.9 9.9-9.9 9.9 4.4 9.9 9.9-4.4 9.9-9.9 9.9zm2.1-11.3c0.1-0.1 0.3-0.4 0.6-0.6 0.2-0.2 0.4-0.3 0.6-0.4s0.3-0.1 0.3-0.1 0.3 0.1 0.5 0.4c0.1 0 0.2 0.1 0.2 0.1 0.2 0.2 0.4 0.3 0.5 0.4l0.2 0.2c0.2 0.2 0.5 0.2 0.7 0s0.2-0.5 0-0.7l-0.2-0.2c-0.2-0.1-0.4-0.3-0.5-0.4l-0.2-0.2c-0.5-0.4-0.9-0.6-1.2-0.6-0.2 0-0.5 0.1-0.7 0.2-0.3 0.1-0.6 0.3-0.9 0.6-0.1 0.1-0.3 0.3-0.5 0.4-0.1 0.1-0.1 0.2-0.2 0.3-0.1 0.2-0.1 0.5 0.1 0.7 0.2 0.1 0.5 0.1 0.7-0.1zm-7 0c0.1-0.1 0.3-0.4 0.6-0.6 0.2-0.2 0.4-0.3 0.6-0.4s0.3-0.1 0.3-0.1 0.3 0.1 0.5 0.4c0.1 0 0.2 0.1 0.2 0.1 0.2 0.2 0.4 0.3 0.5 0.4l0.2 0.2c0.2 0.2 0.5 0.2 0.7 0s0.2-0.5 0-0.7l-0.2-0.2c-0.2-0.1-0.4-0.3-0.5-0.4l-0.2-0.2c-0.5-0.4-0.9-0.6-1.2-0.6-0.2 0-0.5 0.1-0.7 0.2-0.3 0.1-0.6 0.3-0.9 0.6-0.1 0.1-0.3 0.3-0.5 0.4-0.1 0.1-0.1 0.2-0.2 0.3-0.1 0.2-0.1 0.5 0.1 0.7 0.2 0.1 0.5 0.1 0.7-0.1zm0.1 6 10.5-2 0.5-0.1-0.2-1-0.5 0.1-10.5 2-0.5 0.1 0.2 1 0.5-0.1z" width="50" height="50"/>
</g>
<g transform="translate(1025)">
<path d="m9.7 16h-3.4v-1h12.2v1h-3.2v1.5c0 1.4-1.1 2.5-2.5 2.5h-0.6c-1.4 0-2.5-1.1-2.5-2.5v-1.5zm2.7 7.3c6.1 0 10.9-4.8 10.9-10.9 0-6-4.8-10.9-10.9-10.9-6 0-10.9 4.9-10.9 10.9 0 6.1 4.9 10.9 10.9 10.9zm0-1c-5.5 0-9.9-4.4-9.9-9.9s4.4-9.9 9.9-9.9 9.9 4.4 9.9 9.9-4.4 9.9-9.9 9.9zm3.1-15.3v6 0.5h1v-0.5-6-0.5h-1v0.5zm0 2.5c-0.3 0-0.5-0.2-0.5-0.5s0.2-0.5 0.5-0.5v-1c-0.8 0-1.5 0.7-1.5 1.5s0.7 1.5 1.5 1.5v-1zm1 3c0.8 0 1.5-0.7 1.5-1.5s-0.7-1.5-1.5-1.5v1c0.3 0 0.5 0.2 0.5 0.5s-0.2 0.5-0.5 0.5v1zm0-5h1.4v1h-1.4v-1zm-2.4 4h1.4v1h-1.4v-1zm-5.6-4.5v6 0.5h1v-0.5-6-0.5h-1v0.5zm0 2.5c-0.3 0-0.5-0.2-0.5-0.5s0.2-0.5 0.5-0.5v-1c-0.8 0-1.5 0.7-1.5 1.5s0.7 1.5 1.5 1.5v-1zm1 3c0.8 0 1.5-0.7 1.5-1.5s-0.7-1.5-1.5-1.5v1c0.3 0 0.5 0.2 0.5 0.5s-0.2 0.5-0.5 0.5v1zm0-5h1.4v1h-1.4v-1zm-2.4 4h1.4v1h-1.4v-1zm2.6 4.5 1-1v2.5c0 0.8 0.7 1.5 1.5 1.5h0.6c0.8 0 1.5-0.7 1.5-1.5v-2.5l1 1h-5.6z" width="50" height="50"/>
</g>
<g transform="translate(1050)">
<path d="m12.4 23.3c6.1 0 10.9-4.8 10.9-10.9 0-6-4.8-10.9-10.9-10.9-6 0-10.9 4.9-10.9 10.9 0 6.1 4.9 10.9 10.9 10.9zm0-1c-5.5 0-9.9-4.4-9.9-9.9s4.4-9.9 9.9-9.9 9.9 4.4 9.9 9.9-4.4 9.9-9.9 9.9zm2.1-11.9c0.1-0.1 0.3-0.4 0.6-0.6 0.2-0.2 0.4-0.3 0.6-0.4s0.3-0.1 0.3-0.1 0.3 0.2 0.5 0.4c0.1 0 0.2 0.1 0.2 0.1 0.2 0.2 0.4 0.3 0.5 0.5 0.1 0 0.2 0.1 0.2 0.1 0.2 0.2 0.5 0.2 0.7 0s0.2-0.5 0-0.7l-0.2-0.2c-0.2-0.1-0.4-0.3-0.5-0.4l-0.2-0.2c-0.5-0.4-0.9-0.6-1.2-0.6-0.2 0-0.5 0.1-0.7 0.2-0.3 0.1-0.6 0.3-0.9 0.6-0.1 0.1-0.3 0.3-0.5 0.4-0.1 0.1-0.1 0.2-0.2 0.3-0.1 0.2-0.1 0.5 0.1 0.7 0.2 0.1 0.5 0.1 0.7-0.1zm-7 0c0.1-0.1 0.3-0.4 0.6-0.6 0.2-0.2 0.4-0.3 0.6-0.4s0.3-0.1 0.3-0.1 0.3 0.2 0.5 0.4c0.1 0 0.2 0.1 0.2 0.1 0.2 0.2 0.4 0.3 0.5 0.5 0.1 0 0.2 0.1 0.2 0.1 0.2 0.2 0.5 0.2 0.7 0s0.2-0.5 0-0.7l-0.2-0.2c-0.2-0.1-0.4-0.3-0.5-0.4l-0.2-0.2c-0.5-0.4-0.9-0.6-1.2-0.6-0.2 0-0.5 0.1-0.7 0.2-0.3 0.1-0.6 0.3-0.9 0.6-0.1 0.1-0.3 0.3-0.5 0.4-0.1 0.1-0.1 0.2-0.2 0.3-0.1 0.2-0.1 0.5 0.1 0.7 0.2 0.1 0.5 0.1 0.7-0.1zm9.3 6.3c-0.7-1.8-2.4-3-4.4-3-2.1 0-3.8 1.2-4.5 3.1l0.9 0.3c0.6-1.4 2-2.4 3.6-2.4 1.5 0 2.9 1 3.5 2.4l0.9-0.4z" width="50" height="50"/>
</g>
<g transform="translate(1075)">
<path d="m12.4 23.3c6.1 0 10.9-4.8 10.9-10.9 0-6-4.8-10.9-10.9-10.9-6 0-10.9 4.9-10.9 10.9 0 6.1 4.9 10.9 10.9 10.9zm0-1c-5.5 0-9.9-4.4-9.9-9.9s4.4-9.9 9.9-9.9 9.9 4.4 9.9 9.9-4.4 9.9-9.9 9.9zm2.1-12.3c0.1-0.1 0.3-0.4 0.6-0.6 0.2-0.2 0.4-0.3 0.6-0.4s0.3-0.1 0.3-0.1 0.3 0.1 0.5 0.4c0.1 0 0.2 0.1 0.2 0.1 0.2 0.2 0.4 0.3 0.5 0.4l0.2 0.2c0.2 0.2 0.5 0.2 0.7 0s0.2-0.5 0-0.7l-0.2-0.2c-0.2-0.1-0.4-0.3-0.5-0.4l-0.2-0.2c-0.5-0.4-0.9-0.6-1.2-0.6-0.2 0-0.5 0.1-0.7 0.2-0.3 0.1-0.6 0.3-0.9 0.6-0.1 0.1-0.3 0.3-0.5 0.4-0.1 0.1-0.1 0.2-0.2 0.3-0.1 0.2-0.1 0.5 0.1 0.7 0.2 0.1 0.5 0.1 0.7-0.1zm-7 0c0.1-0.1 0.3-0.4 0.6-0.6 0.2-0.2 0.4-0.3 0.6-0.4s0.3-0.1 0.3-0.1 0.3 0.1 0.5 0.4c0.1 0 0.2 0.1 0.2 0.1 0.2 0.2 0.4 0.3 0.5 0.4l0.2 0.2c0.2 0.2 0.5 0.2 0.7 0s0.2-0.5 0-0.7l-0.2-0.2c-0.2-0.1-0.4-0.3-0.5-0.4l-0.2-0.2c-0.5-0.4-0.9-0.6-1.2-0.6-0.2 0-0.5 0.1-0.7 0.2-0.3 0.1-0.6 0.3-0.9 0.6-0.1 0.1-0.3 0.3-0.5 0.4-0.1 0.1-0.1 0.2-0.2 0.3-0.1 0.2-0.1 0.5 0.1 0.7 0.2 0.1 0.5 0.1 0.7-0.1zm10.7 8.3v-0.4c0-3.1-2.5-5.6-5.6-5.6s-5.6 2.5-5.6 5.6v0.4l1-0.1v-0.3c0-2.6 2.1-4.6 4.6-4.6 2.6 0 4.6 2 4.6 4.6v0.3l1 0.1z" width="50" height="50"/>
</g>
<g transform="translate(1100)">
<path d="m12.4 23.3c6.1 0 10.9-4.8 10.9-10.9 0-6-4.8-10.9-10.9-10.9-6 0-10.9 4.9-10.9 10.9 0 6.1 4.9 10.9 10.9 10.9zm0-1c-5.5 0-9.9-4.4-9.9-9.9s4.4-9.9 9.9-9.9 9.9 4.4 9.9 9.9-4.4 9.9-9.9 9.9zm-5.4-10.8c0-0.8 0.7-1.5 1.5-1.5s1.5 0.7 1.5 1.5h1c0-1.4-1.1-2.5-2.5-2.5s-2.5 1.1-2.5 2.5h1zm8 0c0-0.8 0.7-1.5 1.5-1.5s1.5 0.7 1.5 1.5h1c0-1.4-1.1-2.5-2.5-2.5s-2.5 1.1-2.5 2.5h1zm-2.5 7.3c1.4 0 2.5-1.1 2.5-2.5s-1.1-2.5-2.5-2.5-2.5 1.1-2.5 2.5 1.1 2.5 2.5 2.5zm0-1c-0.8 0-1.5-0.7-1.5-1.5s0.7-1.5 1.5-1.5 1.5 0.7 1.5 1.5-0.7 1.5-1.5 1.5zm4.8-9.6 2.1 0.8 0.5 0.1 0.3-0.9-0.5-0.2-2-0.7-0.5-0.2-0.3 0.9 0.4 0.2zm-9.9-0.9-2.1 0.7-0.4 0.2 0.3 0.9 0.5-0.1 2-0.8 0.5-0.2-0.3-0.9-0.5 0.2z" width="50" height="50"/>
</g>
<g transform="translate(1125)">
<path d="m22.5 16.7c0.6-1.4 0.8-2.8 0.8-4.3 0-6-4.8-10.9-10.9-10.9-6 0-10.9 4.9-10.9 10.9 0 6.1 4.9 10.9 10.9 10.9 2.4 0 4.6-0.7 6.5-2.1 1.2 0.3 2.4 0 3.2-1 0.9-1 1-2.4 0.4-3.5zm-4.6 4c-1.6 1.1-3.5 1.6-5.5 1.6-5.5 0-9.9-4.4-9.9-9.9s4.4-9.9 9.9-9.9 9.9 4.4 9.9 9.9c0 1.2-0.1 2.3-0.5 3.4v-0.1c-0.6-0.4-1.6-0.7-3-1-0.6-0.1-1.4-0.2-2.1-0.3-0.4 0-0.7 0-0.9-0.1h-0.7l0.2 0.7c0 0.1 0.1 0.4 0.2 0.8 0.2 0.7 0.4 1.4 0.7 2 0.5 1.3 0.9 2.3 1.5 2.8 0.1 0 0.1 0.1 0.2 0.1zm-2.2-5.4c0.2 0.1 0.5 0.1 0.9 0.1 0.7 0.1 1.4 0.2 2 0.3 1.3 0.2 2.2 0.5 2.5 0.8 0.9 0.8 1.1 2.1 0.3 3.1-0.8 0.9-2.1 1-3.1 0.2-0.3-0.3-0.8-1.2-1.2-2.4l-0.6-1.8c-0.1-0.4-0.2-0.7-0.3-0.9l-0.5 0.6zm-5.2 3.2c0-1.1 0.9-2 2-2s2 0.9 2 2h1c0-1.7-1.3-3-3-3s-3 1.3-3 3h1zm4.5-6.8c0.2 0.2 0.4 0.3 0.6 0.4 0.1 0.1 0.2 0.1 0.3 0.1 0 0 0.2-0.2 0.5-0.4 0.1 0 0.1-0.1 0.2-0.1l0.5-0.5c0.1-0.1 0.2-0.1 0.2-0.2 0.2-0.2 0.5-0.1 0.7 0.1s0.2 0.5 0 0.7l-0.2 0.2c-0.2 0.1-0.4 0.3-0.6 0.4 0 0.1-0.1 0.1-0.2 0.2-0.5 0.4-0.8 0.6-1.1 0.6-0.2 0-0.5-0.1-0.7-0.2-0.3-0.1-0.6-0.3-0.9-0.6-0.2-0.1-0.3-0.3-0.5-0.5l-0.2-0.2c-0.2-0.2-0.1-0.5 0.1-0.7s0.5-0.1 0.7 0.1l0.6 0.6zm-6.9 0c0.2 0.2 0.4 0.3 0.6 0.4s0.3 0.1 0.3 0.1 0.3-0.2 0.5-0.4c0.1 0 0.2-0.1 0.2-0.1 0.2-0.2 0.4-0.3 0.5-0.5 0.1-0.1 0.2-0.1 0.2-0.2 0.2-0.2 0.5-0.1 0.7 0.1s0.2 0.5 0 0.7l-0.2 0.2c-0.2 0.1-0.4 0.3-0.5 0.4s-0.2 0.1-0.2 0.2c-0.5 0.4-0.9 0.6-1.2 0.6-0.2 0-0.5-0.1-0.7-0.2-0.3-0.1-0.6-0.3-0.9-0.6l-0.5-0.5-0.2-0.2c-0.1-0.2-0.1-0.5 0.1-0.7s0.5-0.1 0.7 0.1l0.6 0.6z" width="50" height="50"/>
</g>
<g transform="translate(1150)">
<path d="m12.6 4.8h-0.8-0.4v-0.8h0.4 1.4 0.4v0.8l-0.2 0.3-1 1.2h0.8 0.4v0.8h-0.4-1.4-0.4v-0.8l0.2-0.4 1-1.1zm5.3-0.7c0.6 0.4 1.2 0.9 1.7 1.5l-0.1 0.1-0.3 0.3v1h0.5 1.1c1 1.6 1.5 3.4 1.5 5.4 0 5.5-4.4 9.9-9.9 9.9s-9.9-4.4-9.9-9.9 4.4-9.9 9.9-9.9c1.3 0 2.4 0.2 3.5 0.6h-0.6-0.4v0.9h0.4 1.5l-1.6 1.8-0.3 0.3v0.9h0.4 2.1 0.4v-0.9h-0.4-1.3l1.5-1.7 0.3-0.3zm2.4 0.7c-2-2-4.8-3.3-7.9-3.3-6 0-10.9 4.9-10.9 10.9 0 6.1 4.9 10.9 10.9 10.9 6.1 0 10.9-4.8 10.9-10.9 0-1.9-0.5-3.8-1.4-5.4h0.7 0.5v-1h-0.5-1.3c-0.1-0.1-0.2-0.3-0.4-0.4l1.9-2.1 0.3-0.4h0.1v-1h-0.5-3-0.5v1h0.5 2.1l-1.5 1.7zm-7.8 14c1.4 0 2.5-1.1 2.5-2.5s-1.1-2.5-2.5-2.5-2.5 1.1-2.5 2.5 1.1 2.5 2.5 2.5zm0-1c-0.8 0-1.5-0.7-1.5-1.5s0.7-1.5 1.5-1.5 1.5 0.7 1.5 1.5-0.7 1.5-1.5 1.5zm2.5-7.1c0.2 0.2 0.4 0.3 0.6 0.4 0.1 0.1 0.2 0.1 0.3 0.1 0 0 0.2-0.2 0.5-0.4 0.1 0 0.1-0.1 0.2-0.1l0.5-0.5c0.1-0.1 0.2-0.1 0.2-0.2 0.2-0.2 0.5-0.1 0.7 0.1s0.2 0.5 0 0.7l-0.2 0.2c-0.2 0.1-0.4 0.3-0.6 0.4 0 0.1-0.1 0.1-0.2 0.2-0.5 0.4-0.8 0.6-1.1 0.6-0.2 0-0.5-0.1-0.7-0.2-0.3-0.1-0.6-0.3-0.9-0.6-0.2-0.1-0.3-0.3-0.5-0.5l-0.2-0.2c-0.2-0.2-0.1-0.5 0.1-0.7s0.5-0.1 0.7 0.1l0.6 0.6zm-6.9 0c0.2 0.2 0.4 0.3 0.6 0.4s0.3 0.1 0.3 0.1 0.3-0.2 0.5-0.4c0.1 0 0.2-0.1 0.2-0.1 0.2-0.2 0.4-0.3 0.5-0.5 0.1-0.1 0.2-0.1 0.2-0.2 0.2-0.2 0.5-0.1 0.7 0.1s0.2 0.5 0 0.7l-0.2 0.2c-0.2 0.1-0.4 0.3-0.5 0.4s-0.2 0.1-0.2 0.2c-0.5 0.4-0.9 0.6-1.2 0.6-0.2 0-0.5-0.1-0.7-0.2-0.3-0.1-0.6-0.3-0.9-0.6l-0.5-0.5-0.2-0.2c-0.1-0.2-0.1-0.5 0.1-0.7s0.5-0.1 0.7 0.1l0.6 0.6z" width="50" height="50"/>
</g>
<g transform="translate(1175)">
<path d="m12.4 23.3c6.1 0 10.9-4.8 10.9-10.9 0-6-4.8-10.9-10.9-10.9-6 0-10.9 4.9-10.9 10.9 0 6.1 4.9 10.9 10.9 10.9zm0-1c-5.5 0-9.9-4.4-9.9-9.9s4.4-9.9 9.9-9.9 9.9 4.4 9.9 9.9-4.4 9.9-9.9 9.9zm4.4-15.2c-0.1 0.1-0.3 0.1-0.5 0.2-0.3 0.1-0.7 0.3-1 0.4-1.1 0.5-1.8 1-1.8 1.7 0 0.6 0.7 1.1 1.8 1.6 0.3 0.2 0.7 0.3 1 0.4 0.2 0.1 0.4 0.2 0.5 0.2l0.5 0.1 0.3-0.9-0.5-0.2c-0.1 0-0.2 0-0.4-0.1-0.4-0.1-0.7-0.3-1-0.4-0.7-0.3-1.2-0.6-1.2-0.7s0.5-0.5 1.2-0.8c0.3-0.1 0.6-0.2 1-0.4 0.2 0 0.3-0.1 0.4-0.1l0.5-0.2-0.3-0.9-0.5 0.1zm-9.1 1c0.1 0 0.3 0.1 0.4 0.2 0.4 0.1 0.7 0.2 1 0.3 0.7 0.4 1.2 0.7 1.2 0.8s-0.5 0.4-1.2 0.7c-0.3 0.2-0.6 0.3-1 0.4-0.1 0.1-0.3 0.1-0.4 0.2l-0.5 0.1 0.3 1 0.5-0.2c0.1 0 0.3-0.1 0.5-0.1 0.3-0.2 0.7-0.3 1-0.5 1.1-0.5 1.8-0.9 1.8-1.6s-0.7-1.2-1.8-1.7c-0.3-0.1-0.7-0.3-1-0.4-0.2-0.1-0.4-0.1-0.5-0.1l-0.5-0.2-0.3 1 0.5 0.1zm10.7 10.4v-0.4c0-3.4-2.7-6.1-6.1-6.1-3.3 0-6 2.7-6 6.1v0.4 0.5h0.5 11.1 0.5v-0.5zm-1 0h0.5v-0.5h-11.1v0.5h0.5v-0.4c0-2.8 2.2-5.1 5-5.1 2.9 0 5.1 2.3 5.1 5.1v0.4z" width="50" height="50"/>
</g>
<g transform="translate(1200)">
<path d="m12.4 23.3c6.1 0 10.9-4.8 10.9-10.9 0-6-4.8-10.9-10.9-10.9-6 0-10.9 4.9-10.9 10.9 0 6.1 4.9 10.9 10.9 10.9zm0-1c-5.5 0-9.9-4.4-9.9-9.9s4.4-9.9 9.9-9.9 9.9 4.4 9.9 9.9-4.4 9.9-9.9 9.9zm-2.6-5.9c0 1.5 1.2 2.7 2.7 2.7s2.7-1.2 2.7-2.7h-1c0 1-0.8 1.7-1.7 1.7s-1.7-0.7-1.7-1.7h-1zm-4-6c0 1.5 1.2 2.7 2.7 2.7s2.7-1.2 2.7-2.7h-1c0 1-0.8 1.7-1.7 1.7s-1.7-0.7-1.7-1.7h-1zm8 0c0 1.5 1.2 2.7 2.7 2.7s2.7-1.2 2.7-2.7h-1c0 1-0.8 1.7-1.7 1.7s-1.7-0.7-1.7-1.7h-1zm3.5-2.2 2.1 0.8 0.5 0.1 0.3-0.9-0.5-0.2-2-0.7-0.5-0.2-0.3 0.9 0.4 0.2zm-9.9-0.9-2.1 0.7-0.4 0.2 0.3 0.9 0.5-0.1 2-0.8 0.5-0.2-0.3-0.9-0.5 0.2z" width="50" height="50"/>
</g>
<g transform="translate(1225)">
<path d="m12.4 1.5c-6 0-10.9 4.9-10.9 10.9 0 6.1 4.9 10.9 10.9 10.9 6.1 0 10.9-4.8 10.9-10.9 0-6-4.8-10.9-10.9-10.9zm0 1c5.5 0 9.9 4.4 9.9 9.9s-4.4 9.9-9.9 9.9-9.9-4.4-9.9-9.9 4.4-9.9 9.9-9.9zm5 14.2c-0.1-0.1-0.3-0.4-0.6-0.6-0.2-0.2-0.5-0.3-0.6-0.4-0.2-0.1-0.3-0.1-0.3-0.1l-0.6 0.4-0.1 0.1c-0.2 0.2-0.4 0.3-0.5 0.5-0.1 0-0.2 0.1-0.2 0.1-0.2 0.2-0.6 0.2-0.7 0-0.2-0.2-0.2-0.5 0-0.7l0.2-0.2c0.2-0.1 0.3-0.3 0.5-0.4l0.2-0.2c0.5-0.4 0.8-0.6 1.2-0.6 0.2 0 0.4 0.1 0.7 0.2s0.6 0.3 0.8 0.6c0.2 0.1 0.4 0.3 0.5 0.4s0.2 0.2 0.2 0.3c0.2 0.2 0.2 0.5 0 0.7-0.2 0.1-0.5 0.1-0.7-0.1zm-7 0c-0.1-0.1-0.3-0.4-0.6-0.6-0.2-0.2-0.5-0.3-0.6-0.4-0.2-0.1-0.3-0.1-0.3-0.1l-0.6 0.4-0.1 0.1c-0.2 0.2-0.4 0.3-0.5 0.5-0.1 0-0.2 0.1-0.2 0.1-0.2 0.2-0.6 0.2-0.7 0-0.2-0.2-0.2-0.5 0-0.7l0.2-0.2c0.2-0.1 0.3-0.3 0.5-0.4l0.2-0.2c0.5-0.4 0.8-0.6 1.2-0.6 0.2 0 0.4 0.1 0.7 0.2s0.6 0.3 0.8 0.6c0.2 0.1 0.4 0.3 0.5 0.4s0.2 0.2 0.2 0.3c0.2 0.2 0.2 0.5 0 0.7-0.2 0.1-0.5 0.1-0.7-0.1zm-2.3-5.3c0.7-1.7 2.4-2.9 4.2-2.9 1.9 0 3.6 1.2 4.3 2.9l0.9-0.3c-0.8-2.2-2.9-3.6-5.2-3.6s-4.3 1.4-5.1 3.5l0.9 0.4z" width="50" height="50"/>
</g>
<g transform="translate(1250)">
<path d="m9.7 16h-3.4v-1h12.2v1h-3.2v1.5c0 1.4-1.1 2.5-2.5 2.5h-0.6c-1.4 0-2.5-1.1-2.5-2.5v-1.5zm2.7 7.3c6.1 0 10.9-4.8 10.9-10.9 0-6-4.8-10.9-10.9-10.9-6 0-10.9 4.9-10.9 10.9 0 6.1 4.9 10.9 10.9 10.9zm0-1c-5.5 0-9.9-4.4-9.9-9.9s4.4-9.9 9.9-9.9 9.9 4.4 9.9 9.9-4.4 9.9-9.9 9.9zm2.1-10.9c0.1-0.1 0.3-0.4 0.6-0.6 0.2-0.2 0.4-0.3 0.6-0.4s0.3-0.1 0.3-0.1 0.3 0.2 0.5 0.4c0.1 0 0.2 0.1 0.2 0.1 0.2 0.2 0.4 0.3 0.5 0.5 0.1 0 0.2 0.1 0.2 0.1 0.2 0.2 0.5 0.2 0.7 0s0.2-0.5 0-0.7l-0.2-0.2c-0.2-0.1-0.4-0.3-0.5-0.4l-0.2-0.2c-0.5-0.4-0.9-0.6-1.2-0.6-0.2 0-0.5 0.1-0.7 0.2-0.3 0.1-0.6 0.3-0.9 0.6-0.1 0.1-0.3 0.3-0.5 0.4-0.1 0.1-0.1 0.2-0.2 0.3-0.1 0.2-0.1 0.5 0.1 0.7 0.2 0.1 0.5 0.1 0.7-0.1zm-7 0c0.1-0.1 0.3-0.4 0.6-0.6 0.2-0.2 0.4-0.3 0.6-0.4s0.3-0.1 0.3-0.1 0.3 0.2 0.5 0.4c0.1 0 0.2 0.1 0.2 0.1 0.2 0.2 0.4 0.3 0.5 0.5 0.1 0 0.2 0.1 0.2 0.1 0.2 0.2 0.5 0.2 0.7 0s0.2-0.5 0-0.7l-0.2-0.2c-0.2-0.1-0.4-0.3-0.5-0.4l-0.2-0.2c-0.5-0.4-0.9-0.6-1.2-0.6-0.2 0-0.5 0.1-0.7 0.2-0.3 0.1-0.6 0.3-0.9 0.6-0.1 0.1-0.3 0.3-0.5 0.4-0.1 0.1-0.1 0.2-0.2 0.3-0.1 0.2-0.1 0.5 0.1 0.7 0.2 0.1 0.5 0.1 0.7-0.1zm2.2 4.6 1-1v2.5c0 0.8 0.7 1.5 1.5 1.5h0.6c0.8 0 1.5-0.7 1.5-1.5v-2.5l1 1h-5.6z" width="50" height="50"/>
</g>
<g transform="translate(1275)">
<path d="m10 18.4v-0.7h-0.1c-0.5 0-1 0.4-1 1s0.5 1 1 1h0.1v-0.8-0.5zm2-13h-6.5c-1.1 0-2 0.9-2 2v14.4c0 1.1 0.9 2 2 2h14c1.1 0 2-0.9 2-2v-14.4c0-1.1-0.9-2-2-2h-6.5v-1.6c0.6-0.2 1-0.8 1-1.5 0-0.8-0.7-1.5-1.5-1.5s-1.5 0.7-1.5 1.5c0 0.7 0.4 1.3 1 1.5v1.6zm-1 14.3h1v-2h-1v2zm2 0h1v-2h-1v2zm2 0h0.1c0.5 0 1-0.4 1-1s-0.5-1-1-1h-0.1v2zm-2-13.3h6.5c0.5 0 1 0.5 1 1v14.4c0 0.5-0.5 1-1 1h-14c-0.6 0-1-0.5-1-1v-14.4c0-0.5 0.4-1 1-1h6.5 1zm-11.5 6.2v3.6c0 0.3 0.2 0.5 0.5 0.5s0.5-0.2 0.5-0.5v-3.6c0-0.3-0.2-0.5-0.5-0.5s-0.5 0.2-0.5 0.5zm21 0v3.6c0 0.3 0.2 0.5 0.5 0.5s0.5-0.2 0.5-0.5v-3.6c0-0.3-0.2-0.5-0.5-0.5s-0.5 0.2-0.5 0.5zm-14 1.5c1.4 0 2.5-1.2 2.5-2.6s-1.1-2.5-2.5-2.5-2.5 1.1-2.5 2.5 1.1 2.6 2.5 2.6zm0-1c-0.8 0-1.5-0.7-1.5-1.6 0-0.8 0.7-1.5 1.5-1.5s1.5 0.7 1.5 1.5c0 0.9-0.7 1.6-1.5 1.6zm8 1c1.4 0 2.5-1.2 2.5-2.6s-1.1-2.5-2.5-2.5-2.5 1.1-2.5 2.5 1.1 2.6 2.5 2.6zm0-1c-0.8 0-1.5-0.7-1.5-1.6 0-0.8 0.7-1.5 1.5-1.5s1.5 0.7 1.5 1.5c0 0.9-0.7 1.6-1.5 1.6zm-4-10.3c-0.3 0-0.5-0.2-0.5-0.5 0-0.2 0.2-0.5 0.5-0.5s0.5 0.3 0.5 0.5c0 0.3-0.2 0.5-0.5 0.5zm-4.6 15.9c0-1.1 0.9-2.1 2-2.1h5.2c1.1 0 2 1 2 2.1s-0.9 2-2 2h-5.2c-1.1 0-2-0.9-2-2z" width="50" height="50"/>
</g>
<g transform="translate(1300)">
<path d="m12.4 2.5c1.7 0 3.3 0.4 4.7 1.2l-5.8 1.7-4.3-1.3c1.5-0.9 3.2-1.5 5.1-1.6h0.2 0.1zm8.5 4.7c0.2 0.4 0.4 0.7 0.6 1.1l-4.1-1.2 2.8-0.8c0.2 0.3 0.4 0.5 0.6 0.8l0.1 0.1zm-17.8 1.9c0-0.1 0-0.2 0.1-0.3h0.1l8-2.4 2.6 0.7-11.2 3.3c0.1-0.4 0.2-0.7 0.3-1.1 0-0.1 0-0.1 0.1-0.2zm0.6-1.5c0.6-1 1.4-2 2.3-2.7l0.4 0.1 3.1 0.9-5.8 1.7zm14.5-3.2c0.5 0.3 0.9 0.7 1.3 1.1l-3.9 1.1-2.5-0.7 5-1.5h0.1zm3.7 5.1c0.3 0.9 0.4 1.9 0.4 2.9 0 5.5-4.4 9.9-9.9 9.9s-9.9-4.4-9.9-9.9v-0.9h0.1l13-3.8 6.2 1.7 0.1 0.1zm-9.5 13.8c6.1 0 10.9-4.8 10.9-10.9 0-6-4.8-10.9-10.9-10.9-6 0-10.9 4.9-10.9 10.9 0 6.1 4.9 10.9 10.9 10.9zm2.1-10.3c0.1-0.1 0.3-0.4 0.6-0.6 0.2-0.2 0.4-0.3 0.6-0.4s0.3-0.1 0.3-0.1 0.3 0.1 0.5 0.4c0.1 0 0.2 0.1 0.2 0.1 0.2 0.2 0.4 0.3 0.5 0.4l0.2 0.2c0.2 0.2 0.5 0.2 0.7 0s0.2-0.5 0-0.7l-0.2-0.2c-0.2-0.1-0.4-0.3-0.5-0.4l-0.2-0.2c-0.5-0.4-0.9-0.6-1.2-0.6-0.2 0-0.5 0.1-0.7 0.2-0.3 0.1-0.6 0.3-0.9 0.6-0.1 0.1-0.3 0.3-0.5 0.4-0.1 0.1-0.1 0.2-0.2 0.3-0.1 0.2-0.1 0.5 0.1 0.7 0.2 0.1 0.5 0.1 0.7-0.1zm-7 0c0.1-0.1 0.3-0.4 0.6-0.6 0.2-0.2 0.4-0.3 0.6-0.4s0.3-0.1 0.3-0.1 0.3 0.1 0.5 0.4c0.1 0 0.2 0.1 0.2 0.1 0.2 0.2 0.4 0.3 0.5 0.4l0.2 0.2c0.2 0.2 0.5 0.2 0.7 0s0.2-0.5 0-0.7l-0.2-0.2c-0.2-0.1-0.4-0.3-0.5-0.4l-0.2-0.2c-0.5-0.4-0.9-0.6-1.2-0.6-0.2 0-0.5 0.1-0.7 0.2-0.3 0.1-0.6 0.3-0.9 0.6-0.1 0.1-0.3 0.3-0.5 0.4-0.1 0.1-0.1 0.2-0.2 0.3-0.1 0.2-0.1 0.5 0.1 0.7 0.2 0.1 0.5 0.1 0.7-0.1zm7.8 5.2c-0.5-1.2-1.7-2-2.9-2-1.3 0-2.5 0.8-3 2l1 0.4c0.3-0.8 1.1-1.4 2-1.4 0.8 0 1.6 0.6 1.9 1.4l1-0.4z" width="50" height="50"/>
</g>
<g transform="translate(1325)">
<path d="m19.3 21.2c-1.9 1.5-4.3 2.3-6.8 2.3-6.1 0-11-4.9-11-11s4.9-11 11-11 11 4.9 11 11c0 2.1-0.6 4.2-1.8 6l1.2 0.8-3 2.8-0.6-0.9zm1.7-3.3c0.9-1.6 1.5-3.4 1.5-5.4 0-4.6-3.1-8.4-7.3-9.6-0.8-0.3-1.7-0.4-2.7-0.4-5.5 0-10 4.5-10 10 0 1 0.1 1.9 0.4 2.7 1.2 4.2 5 7.3 9.6 7.3 2.4 0 4.5-0.8 6.2-2.2l-2-2.9 1.7-1.5 2.6 2zm0.4 1.5-3-2.1-0.3 0.3 2 3 1.3-1.2zm-13.9-8.4c0.1-0.1 0.3-0.3 0.6-0.5 0.2-0.2 0.5-0.4 0.7-0.5 0.1 0 0.2-0.1 0.3-0.1-0.1 0 0.2 0.2 0.5 0.4 0 0.1 0.1 0.1 0.2 0.2s0.3 0.2 0.4 0.4c0.1 0.1 0.2 0.1 0.3 0.2 0.2 0.2 0.5 0.2 0.7 0s0.2-0.5 0-0.7l-0.3-0.3c-0.1-0.1-0.3-0.3-0.5-0.4l-0.2-0.2c-0.5-0.4-0.8-0.6-1.1-0.6s-0.5 0.1-0.8 0.2-0.6 0.3-0.8 0.6c-0.2 0.1-0.4 0.3-0.6 0.5 0 0.1-0.1 0.1-0.2 0.2-0.1 0.2-0.1 0.5 0.1 0.7s0.5 0.2 0.7-0.1zm7.1 0.1c0.1-0.2 0.3-0.4 0.6-0.6 0.2-0.2 0.4-0.4 0.6-0.5h0.3s0.3 0.1 0.5 0.3c0.1 0.1 0.2 0.1 0.2 0.2 0.2 0.1 0.4 0.3 0.5 0.4l0.2 0.2c0.2 0.2 0.5 0.2 0.7 0s0.2-0.5 0-0.7c0-0.1-0.1-0.1-0.2-0.2-0.2-0.2-0.4-0.3-0.5-0.5-0.1-0.1-0.2-0.1-0.2-0.2-0.5-0.4-0.9-0.6-1.2-0.6-0.2 0-0.5 0.1-0.7 0.2l-0.9 0.6-0.5 0.5c-0.1 0.1-0.1 0.2-0.2 0.2-0.2 0.2-0.1 0.5 0.1 0.7s0.5 0.2 0.7 0zm-8.6 4h1.6v1.6h-1.6v-1.6zm1.7 1.6h1.6v1.6h-1.6v-1.6zm1.6-1.6h1.6v1.6h-1.6v-1.6zm1.6 1.6h1.6v1.6h-1.6v-1.6zm1.6-1.6h1.6v1.6h-1.6v-1.6zm3.2 0h1.6v1.6h-1.6v-1.6zm-1.6 1.6h1.6v1.6h-1.6v-1.6z" width="50" height="50"/>
</g>
<g transform="translate(1350)">
<path d="m12.4 23.3c6.1 0 10.9-4.8 10.9-10.9 0-6-4.8-10.9-10.9-10.9-6 0-10.9 4.9-10.9 10.9 0 6.1 4.9 10.9 10.9 10.9zm0-1c-5.5 0-9.9-4.4-9.9-9.9s4.4-9.9 9.9-9.9 9.9 4.4 9.9 9.9-4.4 9.9-9.9 9.9zm3-7.1c-0.5 1.3-1.7 2.1-3.1 2.1-1.3 0-2.5-0.8-3-2.1l-1 0.4c0.7 1.6 2.3 2.7 4 2.7 1.8 0 3.4-1.1 4.1-2.7l-1-0.4zm-9.9-5.7c0-1.1 0.9-2 2-2h2.5c1.1 0 2 0.9 2 2v1.5c0 1.7-1.3 3-3 3h-0.5c-1.7 0-3-1.3-3-3v-1.5zm1 0v1.5c0 1.1 0.9 2 2 2h0.5c1.1 0 2-0.9 2-2v-1.5c0-0.5-0.5-1-1-1h-2.5c-0.5 0-1 0.5-1 1zm6.5 0c0-1.1 0.9-2 2-2h2.5c1.1 0 2 0.9 2 2v1.5c0 1.7-1.3 3-3 3h-0.5c-1.7 0-3-1.3-3-3v-1.5zm1 0v1.5c0 1.1 0.9 2 2 2h0.5c1.1 0 2-0.9 2-2v-1.5c0-0.5-0.5-1-1-1h-2.5c-0.5 0-1 0.5-1 1zm-1.7 1.2h0.5 0.2v-1h-0.2-0.5-0.3v1h0.3zm-0.9 6.7h-1v2.6h4v-2.6h-1v1.6h-2v-1.6z" width="50" height="50"/>
</g>
<g transform="translate(1375)">
<path d="m12.4 23.7c6.1 0 10.9-4.8 10.9-10.9 0-6-4.8-10.9-10.9-10.9-6 0-10.9 4.9-10.9 10.9 0 6.1 4.9 10.9 10.9 10.9zm0-1c-5.5 0-9.9-4.4-9.9-9.9s4.4-9.9 9.9-9.9 9.9 4.4 9.9 9.9-4.4 9.9-9.9 9.9zm2.1-10.9c0.1-0.1 0.3-0.4 0.6-0.6 0.2-0.2 0.4-0.3 0.6-0.4s0.3-0.1 0.3-0.1 0.3 0.1 0.5 0.4c0.1 0 0.2 0.1 0.2 0.1 0.2 0.2 0.4 0.3 0.5 0.4l0.2 0.2c0.2 0.2 0.5 0.2 0.7 0s0.2-0.5 0-0.7l-0.2-0.2c-0.2-0.1-0.4-0.3-0.5-0.4l-0.2-0.2c-0.5-0.4-0.9-0.6-1.2-0.6-0.2 0-0.5 0.1-0.7 0.2-0.3 0.1-0.6 0.3-0.9 0.6-0.1 0.1-0.3 0.3-0.5 0.4-0.1 0.1-0.1 0.2-0.2 0.3-0.1 0.2-0.1 0.5 0.1 0.7 0.2 0.1 0.5 0.1 0.7-0.1zm-7 0c0.1-0.1 0.3-0.4 0.6-0.6 0.2-0.2 0.4-0.3 0.6-0.4s0.3-0.1 0.3-0.1 0.3 0.1 0.5 0.4c0.1 0 0.2 0.1 0.2 0.1 0.2 0.2 0.4 0.3 0.5 0.4l0.2 0.2c0.2 0.2 0.5 0.2 0.7 0s0.2-0.5 0-0.7l-0.2-0.2c-0.2-0.1-0.4-0.3-0.5-0.4l-0.2-0.2c-0.5-0.4-0.9-0.6-1.2-0.6-0.2 0-0.5 0.1-0.7 0.2-0.3 0.1-0.6 0.3-0.9 0.6-0.1 0.1-0.3 0.3-0.5 0.4-0.1 0.1-0.1 0.2-0.2 0.3-0.1 0.2-0.1 0.5 0.1 0.7 0.2 0.1 0.5 0.1 0.7-0.1zm-5.8-7.5c0 1.8 4.8 3 10.8 3 5.9 0 10.7-1.2 10.7-3h-1c0 0.3-0.9 0.9-2.6 1.3-1.9 0.4-4.4 0.7-7.1 0.7-2.8 0-5.3-0.3-7.2-0.7-1.7-0.4-2.6-1-2.6-1.3h-1zm1 0c0-0.3 0.9-0.9 2.6-1.3 1.9-0.4 4.4-0.7 7.2-0.7 2.7 0 5.2 0.3 7.1 0.7 1.7 0.4 2.6 1 2.6 1.3h1c0-1.8-4.7-3-10.7-3s-10.8 1.2-10.8 3h1zm6.5 11.3c0 1.8 1.5 3.3 3.3 3.3s3.2-1.5 3.2-3.3h-1c0 1.2-1 2.3-2.2 2.3-1.3 0-2.3-1.1-2.3-2.3h-1z" width="50" height="50"/>
</g>
<g transform="translate(1400)">
<path d="m3.4 18.9 0.6-0.6 1.6 1.3c0.2 0.2 0.4 0.2 0.6 0 0.1-0.2 0.1-0.4-0.1-0.6l-1.6-1.4 0.5-0.5 3 2.5c0.2 0.2 0.4 0.4 0.5 0.6 0.1 0.1 0.1 0.1 0.1 0.2 0.3 0.7 0.2 1.4-0.3 2-0.7 0.9-2 1-2.8 0.3l-3.1-2.6 0.5-0.6 1.6 1.4c0.2 0.1 0.5 0.1 0.6 0 0.1-0.2 0.1-0.5 0-0.6l-1.7-1.4zm18.5 0.5 0.6 0.6l-3.1 2.7c-0.9 0.7-2.2 0.6-2.9-0.3s-0.6-2.1 0.3-2.9l0.8-0.7 2.3-1.9 0.5 0.6-1.7 1.4c-0.1 0.1-0.1 0.4 0 0.5 0.1 0.2 0.4 0.2 0.6 0.1l1.6-1.4 0.5 0.7-1.6 1.4c-0.1 0.1-0.2 0.4 0 0.5 0.1 0.2 0.4 0.2 0.6 0.1l1.5-1.4zm-4.9-1.4-0.9 0.8c-1 0.8-1.3 2-0.9 3.2-0.9 0.2-1.8 0.3-2.8 0.3-0.9 0-1.9-0.1-2.8-0.3 0.4-1.1 0-2.4-0.9-3.1l-0.7-0.7h-0.1c-0.4-0.4-0.5-1-0.1-1.4v-0.1c0.1-0.2 0.1-0.5-0.1-0.7s-0.5-0.1-0.7 0.1l-0.7 0.8-0.7-0.6c-0.4-0.4-1-0.3-1.4 0.1l-0.5 0.7c-0.8-1.4-1.2-3-1.2-4.7 0-5.5 4.4-9.9 9.9-9.9s9.9 4.4 9.9 9.9c0 1.7-0.4 3.2-1.1 4.6l-0.6-0.7c-0.3-0.4-1-0.5-1.4-0.2l-0.7 0.7-0.6-0.8c-0.2-0.2-0.5-0.3-0.8-0.1 0 0.1-0.1 0.2-0.1 0.3-0.1 0.1 0 0.3 0.1 0.4 0.3 0.5 0.3 1.1-0.1 1.4zm4.9-0.2c0.9-1.6 1.4-3.4 1.4-5.4 0-6-4.8-10.9-10.9-10.9-6 0-10.9 4.9-10.9 10.9 0 2 0.5 3.9 1.5 5.5l-1.3 1.6c-0.4 0.4-0.3 1 0.1 1.4l3 2.5c1.3 1.1 3.2 0.9 4.3-0.3 0-0.1 0.1-0.2 0.1-0.2 1 0.3 2.1 0.4 3.2 0.4s2.2-0.1 3.2-0.4l0.1 0.1c1.1 1.3 3 1.5 4.3 0.4l3.1-2.6c0.4-0.4 0.5-1 0.1-1.4l-1.3-1.6zm-7.4-7.3c0.1-0.1 0.3-0.4 0.6-0.6 0.2-0.2 0.4-0.3 0.6-0.4 0.1-0.1 0.3-0.1 0.3-0.1s0.3 0.1 0.5 0.4c0.1 0 0.2 0.1 0.2 0.1 0.2 0.2 0.4 0.3 0.5 0.4l0.2 0.2c0.2 0.2 0.5 0.2 0.7 0s0.2-0.5 0-0.7l-0.2-0.2c-0.2-0.1-0.4-0.3-0.5-0.4s-0.2-0.2-0.3-0.2c-0.4-0.4-0.8-0.6-1.1-0.6-0.2 0-0.5 0.1-0.7 0.2-0.3 0.1-0.6 0.3-0.9 0.6-0.1 0.1-0.3 0.3-0.5 0.4-0.1 0.1-0.1 0.2-0.2 0.3-0.1 0.2-0.1 0.5 0.1 0.7 0.2 0.1 0.5 0.1 0.7-0.1zm-7 0c0.1-0.1 0.3-0.4 0.6-0.6 0.2-0.2 0.4-0.3 0.6-0.4 0.1-0.1 0.3-0.1 0.3-0.1s0.3 0.1 0.5 0.4c0.1 0 0.2 0.1 0.2 0.1 0.2 0.2 0.4 0.3 0.5 0.4l0.2 0.2c0.2 0.2 0.5 0.2 0.7 0s0.2-0.5 0-0.7l-0.2-0.2c-0.2-0.1-0.4-0.3-0.5-0.4s-0.2-0.2-0.3-0.2c-0.4-0.4-0.8-0.6-1.1-0.6-0.2 0-0.5 0.1-0.7 0.2-0.3 0.1-0.6 0.3-0.9 0.6-0.1 0.1-0.3 0.3-0.5 0.4-0.1 0.1-0.1 0.2-0.2 0.3-0.1 0.2-0.1 0.5 0.1 0.7 0.2 0.1 0.5 0.1 0.7-0.1zm8.6 3.3c-0.6 1.6-2.1 2.6-3.7 2.6-1.7 0-3.1-1.1-3.7-2.6l-1 0.4c0.8 1.9 2.6 3.2 4.7 3.2 2 0 3.9-1.3 4.6-3.2l-0.9-0.4z" width="50" height="50"/>
</g>
<g transform="translate(1425)">
<path d="m12.9 23.6c-0.5 0-1-0.3-1.3-0.7l-1.4-1.6 0.6 0.8-1.9-2.3s0.4-0.4 0.4-0.3l0.8 0.9 0.7 0.8 0.7-0.7 1.9-1.6 1.6-1.3s0.3 0.4 0.3 0.4l-0.8 0.7-0.7 0.6 0.6 0.8 1.4 1.7-1.6 1.4c-0.3 0.2-0.7 0.4-1 0.4h-0.2-0.1zm3.5-1c4.1-1.6 6.9-5.5 6.9-10.2 0-6-4.8-10.9-10.9-10.9-6 0-10.9 4.9-10.9 10.9 0 5.4 3.9 9.9 9 10.8l0.3 0.4c1 1.2 2.8 1.3 4 0.3l1.6-1.3zm-7-0.7c-4-1.3-6.9-5.1-6.9-9.5 0-5.5 4.4-9.9 9.9-9.9s9.9 4.4 9.9 9.9c0 3.9-2.2 7.3-5.5 9l-1.3-1.6-0.3-0.4 0.3-0.3 0.4-0.3c0.5-0.4 0.5-1 0.2-1.4l-0.4-0.4c-0.3-0.4-1-0.5-1.4-0.1l-1.5 1.3-1.9 1.6-0.8-1c-0.4-0.4-1-0.5-1.5-0.1l-0.3 0.3c-0.5 0.4-0.5 1-0.2 1.4l1.3 1.5zm4.6-5.9c0.3 0 0.5-0.2 0.5-0.5s-0.2-0.5-0.5-0.5h-3c-0.3 0-0.5 0.2-0.5 0.5s0.2 0.5 0.5 0.5h3zm-0.5-6.5c0 1.2 1 2.2 2.2 2.2s2.2-1 2.2-2.2h-1c0 0.7-0.5 1.2-1.2 1.2s-1.2-0.5-1.2-1.2h-1zm-6.6 0c0 1.2 1 2.2 2.2 2.2s2.2-1 2.2-2.2h-1c0 0.7-0.5 1.2-1.2 1.2-0.6 0-1.2-0.5-1.2-1.2h-1z" width="50" height="50"/>
</g>
</g>
</svg>
