<svg xmlns:rdf="http://www.w3.org/1999/02/22-rdf-syntax-ns#" xmlns="http://www.w3.org/2000/svg" height="114.4mm" width="102.46mm" version="1.1" xmlns:cc="http://creativecommons.org/ns#" xmlns:dc="http://purl.org/dc/elements/1.1/" viewBox="0 0 363.03329 405.35436">
<g transform="translate(-229.91 181.74)">
<path style="fill-rule:evenodd;fill:#fafafa" d="m438.54-181.72c-41.03 0.20416-82.946 31.27-86.845 73.664-1.5373 34.475 24.618 62.316 50.927 80.922 29.545 20.959 64.204 32.68 94.949 51.493 3.3067 13.852 7.0928 32.396-4.9275 42.847-20.465 7.7887-25.464 37.004-10.46 52.293 7.467 8.6282 19.603 12.41 30.727 10.46-9.6747 10.317-21.716 18.437-34.982 23.367 3.5261-19.872-2.1625-40.293-11.012-57.96-2.4698-3.1778-6.8351-10.622-9.4198-8.9269-10.709 17.326 0.9555 37.03-0.6302 55.293-1.8348 5.4317-1.5415 13.612-5.265 17.145-18.46 2.7971-37.152-0.43948-55.48 0.1601-8.5303 3.2266-4.215 15.988 3.8846 16.426 15.648 5.2052 32.382 5.5625 48.712 5.04-2.4629 14.783 3.5455 31.537 18.171 37.555 23.537 12.391 55.213 3.2462 68.897-19.498 12.991-15.659 36.664-15.138 49.403-31.288 11.706-11.799 10.179-33.715-4.7011-42.181-6.5957-3.9459-16.2-5.5451-17.665-14.612-0.3315-6.3397-1.2733-12.39-3.289-18.412 8.6999-29.692-6.7754-62.062-31.566-79.12-43.262-33.094-101.59-43.781-137.77-86.326-12.784-14.295-18.218-36.595-6.9295-53.35 19.056-31.868 65.314-43.12 95.752-21.839 8.1653 6.3544 15.366 14.958 26.446 15.999 8.2436 4.3572 3.0678-5.7612 2.115-9.9514-8.9568-22.072-32.883-33.936-55.088-38.271-4.6114-0.72397-9.2869-1.0441-13.953-0.92888zm-104.12 174.82c-17.7 8.7928-32.924 23.755-37.894 43.368-3.3418 9.7861-2.8257 21.406-2.2409 30.811-12.172 2.1248-21.738 11.998-26.198 23.157-10.166-0.95385-22.715-2.3722-29.785 7.061-11.744 11.849-9.9131 30.889-2.1245 44.268 2.5221 9.9878-7.1146 20.617-1.9997 29.653 7.4827 6.8876 16.676-3.2094 19.116-10.196 7.2575-14.117 0.9847-30.137-0.4428-44.425 3.6434-6.913 11.106 0.4798 16.824-1.3275 11.441-0.12558 21.639-8.5224 23.942-19.614 2.4121-4.0713 7.0084-3.1514 8.3948 1.2647 18.151 22.334 34.241 46.312 51.091 69.588 5.9505 8.6804 7.8499 24.234-4.7449 27.927-16.721 5.4088-30.314-10.075-46.826-9.7254-14.585-0.32342-28.868-2.5701-43.146-5.4198-6.7594-0.78162-13.572-0.7653-20.367-0.83788 7.6155 17.127 26.473 24.322 43.948 26.06 13.823 1.145 27.486 3.9026 39.446 11.296 23.745 13.179 60.099-1.7787 62.422-30.257 1.7458-13.49-4.8968-26.114-11.009-37.628 12.798-9.9986 7.8755-30.303-3.6309-39.168-14.401-12.19-29.43-23.629-42.79-36.95-14.044-15.032-5.3376-36.872 2.2293-52.877 5.1478-10.368 10.12-20.82 14.564-31.514l-8.778 5.4857zm190.52 52.271c6.8972 8.2265 11.3 19.314 10.934 29.914-5.4028 1.9644-11.194 2.6408-16.846 1.5912 4.6858-9.7076 6.0997-21.496 5.9126-31.505zm5.062 40.747c6.5197 8.8817-10.833-1.8128 0 0zm-14.04 13.193c-2.4387 5.4055-9.2294 7.8379-13.683 3.2042 4.5496-0.73792 9.8394-3.5464 13.683-3.2042zm28.388 30.35c5.3325 8.118 14.841 13.085 21.707 18.644-7.5446 10.927-22.646 11.422-33.237 18.422-11.16 5.5846-18.47 15.975-26.098 25.213-8.9673 6.8488-26.426 9.141-33.049-1.4373-1.109-5.7637-2.663-15.145 5.9404-14.247 26.614-6.2819 49.727-24.493 64.736-46.595z"/>
</g>
</svg>
